<?xml version="1.0" encoding="utf-8"?>
<svg version="1.1" xmlns="http://www.w3.org/2000/svg" xmlns:xlink="http://www.w3.org/1999/xlink" viewBox="0 0 289 300">
    <path d="M277.253,220.265l-20.917-21.608v-52.603l20.917-21.329l9.747,9.641v75.976L277.253,220.265z M256.336,91.708V39.114 l20.917-21.625L287,27.421v75.974l-9.747,9.637L256.336,91.708z M189.563,33.264l-21.2-21.616L178.104,2h83.97l9.45,9.648 l-20.916,21.616H189.563z M183.841,91.708l-21.206,21.323l-9.458-9.637V27.421l9.458-9.932l21.206,21.625V91.708z M158.053,265.63 l1.853,0.848l0.859,1.868l-0.859,5.9l0.859,4.805l-0.859,0.545l1.403,9.94l0.539,0.617l0.774-0.617l5.959,3.248l0.696,0.787 l-0.696,3.256l-5.336,1.318l-5.966-1.318h-1.852l-3.256-1.937l-8.589,3.255l-5.339-1.937l-1.316-1.318l-0.774,0.621l-1.159-1.929 l0.621-9.941l-0.621-4.034l0.621-5.35l-0.545-3.109l-0.929-1.235l-2.471,0.461h-1.322l-0.929-1.247l-0.692-0.145l-0.776-0.773 l-0.617-1.247l2.012-1.549l4.337-0.315l5.881,1.393l0.544,1.869l-1.318,7.998l0.774,0.616l-0.774,4.043l1.318,8.531v0.617 l4.021,1.325l4.026-0.624l4.018-4.573v-2.095l2.408-3.182l1.393-8.7l0.773-0.685v-1.174l-2.166-1.318h-5.887l-0.539-2.166 l4.018-1.869l3.801,1.397L158.053,265.63z M107.326,91.708V39.114l20.91-21.625l9.747,9.938V103.4l-9.747,9.638L107.326,91.708z  M40.616,33.368L19.328,11.826l9.695-9.677L113.057,2l9.456,9.648l-20.917,21.616L40.616,33.368z M34.823,198.65l-21.201,21.614 l-9.454-9.931v-75.969l9.454-9.641l21.201,21.329V198.65z M10.513,291.551l0.619-11.34l0.54-0.532l-1.165-2.105L11.126,273v-1.319 l-1.312-1.318H7.106l-2.635-1.937v-1.403l2.635-2.094l5.884,2.094l1.313,1.403h2.168l1.861-2.723l3.246-0.774l2.714,2.094 l2.087,1.947l3.253-0.544l1.857-2.094h3.41l0.619-0.629l4.021,1.943l1.312,5.347l-1.312,9.16l1.312,9.942v0.773l1.933,0.545h2.088 v3.413l-14.708,0.616l-0.539-0.616l-6.655,0.616h-2.704l-1.159-1.932l3.872-2.636l1.313-1.325l-0.621-4.037l0.621-0.544 l-0.621-4.805l0.621-0.627l-0.621-5.349l1.933-1.864l-1.933-2.645l-4.565-0.618l-3.409,3.256l-1.395,4.042l-0.464,0.532 l1.313,11.793v1.41l1.857,1.318l0.774,0.774v2.639l-6.114,1.318L2,296.827l1.083-3.413l6.117-0.545L10.513,291.551z M27,288.283 l1.312,3.812l-0.618,0.773h2.471l2.087,0.545l3.256-1.318l-0.62-3.812l1.395-2.094l-0.763-5.19l1.313-1.32v-5.36l-3.252-3.256 l-2.091-0.7l-2.633,3.956L27,280.211l1.312,1.942L27,288.283z M58.584,290.775l0.542,0.775h2.706l1.313-1.32l-0.538-2.185 l-0.775-0.458h0.775l1.313-6.754l-0.77-5.111l0.774-5.36l-1.312-1.319l-2.168,1.864l-2.637-1.162l-0.545-0.702l-1.312,0.702h-2.706 l-0.621-5.361l11.302,1.409l0.539-0.773h1.935l2.086,2.716l0.621,12.566l-1.396,2.64l0.774,5.117v2.185l1.312,1.32l7.277-0.776 h2.715l1.312,1.32l0.544,3.411l-1.312,1.937l-2.715,0.618l-4.567-0.618l-0.539,0.618h-1.391l-0.697-0.618l-0.62,0.618l-2.087-0.618 l-6.425,1.403l-3.483-0.785l-0.539-0.618l-0.617,0.618l-3.407-0.618h-1.939l-2.089-2.649l0.776-2.71L58.584,290.775z  M68.492,254.534l0.62,3.182l-1.396,2.172l-2.396,1.32l-4.875-1.32l-0.466-3.479l1.312-1.868l3.173-1.931L68.492,254.534z  M19.353,118.876l15.471-15.481h72.503l15.187,15.481l-15.187,15.489H34.823L19.353,118.876z M113.057,235.753H29.094l-9.741-9.632 l21.203-21.637h61.04l20.917,21.637L113.057,235.753z M91.247,292.869l3.794-0.773l1.312-1.41l0.774-5.814l-0.774-10.008V273 l-5.113-3.255l-1.312-2.093v-1.949l1.86-1.319l4.565,1.319l2.714-1.863l2.633,2.492h0.541l2.166,2.094l7.819-4.042l5.341,0.545 l4.492,4.816l0.851,7.828l-0.851,15.303l4.337,2.548l-2.168,2.02l-4.027-0.616l-5.344,0.616h-2.631l-1.394-1.319v-1.936l6.734-1.319 h0.693l0.622-0.773l-0.622-3.812v-2.71l0.622-0.695l-1.315-11.873l-4.648-2.643l-4.025,2.021l-5.341,7.296l-1.858,4.575l0.541,4.658 l-0.541,1.779v0.859l1.858,1.869l4.796-0.471l-1.312,3.187v0.697l-1.314,1.319l-2.169-0.697l-1.858,0.697l-0.545-0.697l-2.709,0.697 l-3.404-0.697l-4.649,0.697l-1.312-1.319h-0.542l0.542-2.095L91.247,292.869z M108.894,292.869l-0.539,0.073l0.082-0.073H108.894z  M201.786,278.506h0.92v1.173h-0.92V278.506z M183.9,265.703l1.319-11.871h4.018l1.863,3.34l-1.167,1.318l0.623,5.343l-0.623,0.551 v0.545l2.475,1.403l6.196-0.629l3.787,0.629l0.695,2.094l-1.313,1.937h-3.182l-0.854-0.624l-6.649,1.318v1.326l-1.864,1.931 l1.319,7.212l0.545,0.628l-1.864,2.101l3.184,1.93l-1.319,1.318v2.095l2.166,1.095h0.46l1.396-3.189h0.775l0.544,0.774l5.343-5.347 h1.313l1.319,2.644l-0.696,1.929v2.095l-2.711,3.267v1.318h-0.544l-1.392,2.64l-3.183,1.319v0.622l-0.774,0.616l-4.562-0.616h-1.93 l-3.406-4.03l-1.319-3.182l0.689-1.948l-0.689-3.413l1.319-15.127l-3.795-0.7l-5.341,0.7l-2.089-1.317v-2.723l2.633-2.094 L183.9,265.703z M219.441,271.062l3.242-2.02l2.089-1.931l1.93-0.774l10.455,0.774l5.422,5.893l2.007,4.036v2.638l-0.694,0.538 l0.694,0.63l-0.694,2.095l-3.25-0.776l-3.479,1.398l-1.857-1.398l-3.25,0.776l-1.319,1.324v-0.702l-4.022-0.617l-5.336,0.617 l-0.617,0.702l1.391,4.658l3.952,3.184l5.184,2.093l2.64-0.774l0.773,0.774l6.499-5.905h2.093l0.617,1.948l-1.312,2.639 l-4.649,3.957l-7.2,1.936l-2.171-1.319h-3.787l-4.721-4.573v-1.318l-2.479-2.64l-1.313-7.303l-0.853-0.774l2.166-5.977 L219.441,271.062z M230.73,273l1.858,1.863v0.859l-1.858,3.17l4.562-0.532V273l-1.929-1.938h-2.089l-3.787-0.7l-0.774,0.7 l0.774,0.618l-0.774,0.55v2.178l0.774,0.462h0.544L230.73,273z M225.395,279.679l2.094-1.318v-1.319h-3.412L225.395,279.679z  M153.164,210.341v-75.976l9.464-9.641l21.201,21.329v52.603l-21.201,21.608L153.164,210.341z M250.607,204.484l20.916,21.637 l-9.45,9.632h-83.97l-9.74-9.632l21.213-21.637H250.607z M257.135,284.254h1.309l2.717,3.255l2.716,1.403h0.459v0.69l-0.459,0.628 l1.851,1.32l2.639-0.859l0.617,0.859v0.552l-0.617,0.773l0.617,0.544l2.638-1.317l0.774,0.773h1.931l0.545-0.773l2.631-1.411v-1.779 l2.165-1.942l-1.317-2.092l-2.166-1.932l-3.788-1.408l-4.797,0.634l-3.722-1.167l-5.421-2.645l-1.308-2.638l0.617-5.978l2.633-2.723 l3.479-1.319h8.519l4.562,2.723l2.71-2.094l0.545-0.629l1.93,1.943l0.697,2.092l-1.312,2.645l0.615,3.34v0.454h-1.166l-3.48-4.509 l-3.95-3.248l-7.817-0.773l-2.717,2.092l-1.856,1.93l-0.774,2.646l1.319,2.716l5.336,1.319l5.337,0.532l6.425,1.318l2.711,1.326 l3.255,4.658l-0.545,3.413v1.942l-5.881,5.282l-7.279,1.929l-6.733-1.929l-5.88,0.622h-1.32l-1.319-1.319l0.63-11.253 L257.135,284.254z"/>
</svg>
