<?xml version="1.0" encoding="utf-8"?>
<svg version="1.1" xmlns="http://www.w3.org/2000/svg" width="32" height="32" viewBox="0 0 32 32">
<path d="M30.7,17.2c0,8.1-6.6,14.8-14.8,14.8S1.2,25.4,1.2,17.2c0-4.7,2.2-9,5.9-11.8c1.1-0.8,2.6-0.6,3.4,0.5s0.6,2.7-0.5,3.5
	c-2.5,1.9-3.9,4.8-3.9,7.9c0,5.4,4.4,9.8,9.8,9.8s9.8-4.4,9.8-9.8c0-3.1-1.4-6-3.9-7.9C20.7,8.6,20.5,7,21.3,6
	c0.8-1.1,2.4-1.3,3.4-0.5C28.6,8.3,30.7,12.6,30.7,17.2z M18.4,2.5v12.3c0,1.3-1.1,2.5-2.5,2.5s-2.5-1.1-2.5-2.5V2.5
	c0-1.3,1.1-2.5,2.5-2.5S18.4,1.1,18.4,2.5z"/>
</svg>
