<?xml version="1.0" encoding="utf-8"?>
<svg version="1.1" xmlns="http://www.w3.org/2000/svg" xmlns:xlink="http://www.w3.org/1999/xlink" viewBox="0 0 32 32">
    <path d="M27.77 25.043l-1.855-1.916v-4.664l1.855-1.891 0.864 0.855v6.736l-0.864 0.88zM25.916 13.645v-4.663l1.855-1.917 0.864 0.881v6.736l-0.864 0.855-1.855-1.891zM19.996 8.463l-1.88-1.917 0.864-0.855h7.445l0.838 0.855-1.855 1.917h-5.412zM19.488 13.645l-1.88 1.891-0.839-0.855v-6.736l0.839-0.881 1.88 1.917v4.663zM17.201 29.065l0.165 0.075 0.076 0.165-0.076 0.523 0.076 0.426-0.076 0.048 0.124 0.881 0.048 0.055 0.069-0.055 0.528 0.288 0.062 0.070-0.062 0.288-0.474 0.117-0.528-0.117h-0.165l-0.288-0.171-0.762 0.288-0.474-0.171-0.116-0.117-0.069 0.055-0.103-0.171 0.055-0.881-0.055-0.358 0.055-0.474-0.048-0.276-0.082-0.109-0.219 0.041h-0.117l-0.082-0.11-0.062-0.013-0.069-0.069-0.055-0.11 0.179-0.137 0.385-0.028 0.521 0.124 0.048 0.165-0.117 0.709 0.069 0.055-0.069 0.358 0.117 0.756v0.055l0.357 0.117 0.357-0.055 0.357-0.405v-0.186l0.213-0.282 0.124-0.771 0.069-0.061v-0.104l-0.192-0.117h-0.522l-0.048-0.192 0.357-0.165 0.336 0.124 0.185-0.077zM12.704 13.645v-4.663l1.854-1.917 0.864 0.881v6.736l-0.864 0.855-1.854-1.891zM6.79 8.473l-1.887-1.91 0.86-0.858 7.45-0.013 0.838 0.855-1.854 1.917-5.406 0.009zM6.276 23.127l-1.88 1.916-0.838-0.88v-6.736l0.838-0.855 1.88 1.891v4.663zM4.12 31.363l0.055-1.005 0.048-0.047-0.103-0.187 0.055-0.405v-0.117l-0.116-0.117h-0.24l-0.233-0.171v-0.125l0.233-0.186 0.522 0.186 0.116 0.125h0.192l0.165-0.241 0.288-0.069 0.241 0.186 0.185 0.172 0.288-0.048 0.165-0.186h0.302l0.055-0.056 0.356 0.172 0.116 0.474-0.116 0.812 0.116 0.881v0.069l0.171 0.048h0.185v0.303l-1.304 0.055-0.048-0.055-0.59 0.055h-0.24l-0.103-0.171 0.343-0.234 0.116-0.117-0.055-0.358 0.055-0.048-0.055-0.426 0.055-0.056-0.055-0.474 0.171-0.165-0.171-0.234-0.405-0.055-0.302 0.288-0.124 0.358-0.041 0.047 0.116 1.046v0.125l0.165 0.117 0.069 0.069v0.234l-0.542 0.117-0.857-0.117 0.096-0.303 0.542-0.048 0.116-0.117zM5.582 31.074l0.116 0.338-0.055 0.069h0.219l0.185 0.048 0.288-0.117-0.055-0.338 0.124-0.186-0.068-0.46 0.116-0.117v-0.475l-0.288-0.288-0.185-0.063-0.233 0.351-0.165 0.522 0.116 0.172-0.116 0.543zM8.383 31.294l0.048 0.069h0.24l0.116-0.117-0.048-0.193-0.069-0.041h0.069l0.116-0.599-0.068-0.453 0.069-0.475-0.116-0.117-0.192 0.165-0.233-0.103-0.048-0.062-0.116 0.062h-0.24l-0.055-0.475 1.002 0.125 0.048-0.069h0.171l0.185 0.241 0.055 1.115-0.124 0.234 0.069 0.454v0.193l0.116 0.117 0.645-0.069h0.241l0.116 0.117 0.048 0.303-0.116 0.171-0.241 0.055-0.405-0.055-0.048 0.055h-0.124l-0.062-0.055-0.055 0.055-0.185-0.055-0.57 0.125-0.309-0.070-0.048-0.055-0.055 0.055-0.302-0.055h-0.172l-0.185-0.235 0.069-0.241 0.762-0.117zM9.261 28.082l0.055 0.282-0.124 0.192-0.213 0.117-0.432-0.117-0.041-0.309 0.116-0.165 0.281-0.171 0.357 0.171zM4.904 16.054l1.372-1.373h6.428l1.346 1.373-1.346 1.373h-6.428l-1.372-1.373zM13.212 26.417h-7.444l-0.864-0.854 1.88-1.918h5.412l1.854 1.918-0.838 0.854zM11.279 31.48l0.336-0.069 0.116-0.125 0.069-0.516-0.069-0.887v-0.165l-0.453-0.288-0.116-0.186v-0.172l0.165-0.117 0.405 0.117 0.241-0.165 0.233 0.221h0.048l0.192 0.186 0.693-0.358 0.474 0.048 0.398 0.427 0.075 0.694-0.075 1.356 0.385 0.226-0.192 0.179-0.357-0.055-0.474 0.055h-0.233l-0.124-0.117v-0.172l0.597-0.117h0.062l0.055-0.069-0.055-0.338v-0.24l0.055-0.062-0.116-1.052-0.412-0.234-0.357 0.179-0.474 0.647-0.165 0.405 0.048 0.413-0.048 0.158v0.076l0.165 0.165 0.425-0.042-0.116 0.282v0.062l-0.116 0.117-0.192-0.062-0.165 0.062-0.048-0.062-0.24 0.062-0.302-0.062-0.412 0.062-0.116-0.117h-0.048l0.048-0.186 0.193-0.166zM12.843 31.48l-0.048 0.007 0.007-0.007h0.041zM21.079 30.207h0.082v0.104h-0.082v-0.104zM19.493 29.071l0.117-1.052h0.357l0.165 0.296-0.103 0.117 0.055 0.474-0.055 0.048v0.048l0.22 0.125 0.549-0.056 0.336 0.056 0.062 0.186-0.116 0.171h-0.282l-0.076-0.055-0.59 0.117v0.117l-0.165 0.171 0.117 0.639 0.048 0.056-0.165 0.186 0.282 0.171-0.117 0.117v0.186l0.192 0.097h0.041l0.124-0.282h0.069l0.048 0.069 0.474-0.474h0.116l0.117 0.234-0.062 0.171v0.186l-0.24 0.289v0.117h-0.048l-0.124 0.234-0.282 0.117v0.055l-0.069 0.055-0.404-0.055h-0.171l-0.302-0.357-0.117-0.282 0.062-0.172-0.062-0.303 0.117-1.341-0.336-0.062-0.474 0.062-0.185-0.117v-0.241l0.233-0.186 0.645 0.068zM22.644 29.547l0.288-0.179 0.185-0.171 0.171-0.069 0.927 0.069 0.481 0.522 0.178 0.358v0.234l-0.062 0.047 0.062 0.056-0.062 0.186-0.288-0.069-0.309 0.124-0.165-0.124-0.288 0.069-0.117 0.117v-0.062l-0.357-0.055-0.474 0.055-0.055 0.062 0.124 0.413 0.35 0.282 0.46 0.186 0.233-0.069 0.069 0.069 0.577-0.523h0.185l0.055 0.172-0.116 0.234-0.412 0.351-0.638 0.171-0.192-0.117h-0.336l-0.419-0.405v-0.117l-0.22-0.234-0.116-0.647-0.076-0.069 0.192-0.53 0.164-0.337zM23.645 29.718l0.165 0.165v0.076l-0.165 0.281 0.405-0.047v-0.476l-0.171-0.171h-0.185l-0.336-0.062-0.069 0.062 0.069 0.055-0.069 0.048v0.193l0.069 0.041h0.048l0.239-0.166zM23.172 30.311l0.185-0.117v-0.117h-0.302l0.117 0.234zM16.768 24.163v-6.736l0.839-0.855 1.88 1.891v4.664l-1.88 1.916-0.839-0.88zM25.408 23.644l1.855 1.918-0.838 0.854h-7.445l-0.864-0.854 1.88-1.918h5.411zM25.986 30.717h0.116l0.241 0.288 0.241 0.125h0.041v0.061l-0.041 0.056 0.165 0.117 0.233-0.076 0.055 0.076v0.048l-0.055 0.069 0.055 0.048 0.233-0.117 0.069 0.069h0.171l0.048-0.069 0.233-0.125v-0.158l0.192-0.172-0.117-0.186-0.192-0.171-0.336-0.125-0.425 0.056-0.33-0.103-0.481-0.234-0.116-0.234 0.055-0.53 0.233-0.241 0.309-0.117h0.755l0.405 0.241 0.241-0.186 0.048-0.056 0.171 0.172 0.062 0.186-0.116 0.234 0.055 0.296v0.041h-0.103l-0.309-0.399-0.35-0.288-0.693-0.069-0.241 0.186-0.165 0.171-0.069 0.234 0.117 0.241 0.473 0.117 0.474 0.047 0.57 0.117 0.241 0.117 0.288 0.413-0.048 0.303v0.172l-0.522 0.468-0.645 0.171-0.597-0.171-0.522 0.055h-0.116l-0.117-0.117 0.055-0.998 0.062-0.054z"></path>
</svg>
