<?xml version="1.0" encoding="utf-8"?>
<svg version="1.1" xmlns="http://www.w3.org/2000/svg" width="32" height="32" viewBox="0 0 32 32">
    <path d="M16 0C7.2 0 0 7.2 0 16s7.2 16 16 16 16-7.2 16-16S24.8 0 16 0zm0 29C8.8 29 3 23.2 3 16S8.8 3 16 3s13 5.8 13 13-5.8 13-13 13z"/>
    <path d="M16 9c-.4 0-.8.3-.8.8v12.5c0 .4.3.8.8.8.4 0 .8-.3.8-.8V9.7c0-.4-.4-.7-.8-.7zM18.4 11.4c-.4 0-.8.3-.8.8v7.6c0 .4.3.8.8.8s.8-.3.8-.8v-7.6c-.1-.4-.4-.8-.8-.8zM20.7 12.9c-.4 0-.8.3-.8.8v4.6c0 .4.3.8.8.8s.8-.3.8-.8v-4.6c0-.4-.4-.8-.8-.8zM23 11c-.4 0-.8.3-.8.8v8.5c0 .4.3.8.8.8s.8-.3.8-.8v-8.5c0-.5-.3-.8-.8-.8zM25.4 13.9c-.4 0-.8.3-.8.8v2.6c0 .4.3.8.8.8.4 0 .8-.3.8-.8v-2.6c0-.4-.4-.8-.8-.8zM13.6 7.9c-.4 0-.8.3-.8.8v14.7c0 .4.3.8.8.8.4 0 .8-.3.8-.8V8.7c0-.5-.3-.8-.8-.8zM11.3 10.6c-.4 0-.8.3-.8.8v9.2c0 .4.3.8.8.8.4 0 .8-.3.8-.8v-9.2c0-.5-.3-.8-.8-.8zM9 13.9c-.4 0-.8.3-.8.8v2.6c0 .4.3.8.8.8.4 0 .8-.3.8-.8v-2.6c-.1-.4-.4-.8-.8-.8zM6.6 13.5c-.4 0-.8.3-.8.8v3.4c0 .4.3.8.8.8s.8-.3.8-.8v-3.4c0-.5-.4-.8-.8-.8z"/>
</svg>
