<?xml version="1.0" encoding="utf-8"?>
<svg version="1.1" xmlns="http://www.w3.org/2000/svg" xmlns:xlink="http://www.w3.org/1999/xlink" width="32" height="32" viewBox="0 0 32 32">
    <path d="M16 21.913q1.183 0 2.087 0.904t0.904 2.087-0.904 2.087-2.087 0.904-2.087-0.904-0.904-2.087 0.904-2.087 2.087-0.904zM16 13.009q1.183 0 2.087 0.904t0.904 2.087-0.904 2.087-2.087 0.904-2.087-0.904-0.904-2.087 0.904-2.087 2.087-0.904zM16 10.087q-1.183 0-2.087-0.904t-0.904-2.087 0.904-2.087 2.087-0.904 2.087 0.904 0.904 2.087-0.904 2.087-2.087 0.904z"></path>
</svg>
