<?xml version="1.0" encoding="utf-8"?>
<svg version="1.1" id="Calque_2" xmlns="http://www.w3.org/2000/svg" xmlns:xlink="http://www.w3.org/1999/xlink" x="0px" y="0px"
	 viewBox="0 0 48 48" style="enable-background:new 0 0 48 48;" xml:space="preserve">
<path d="M21.4,17.4h-6c-3.6,0-6.6,2.9-6.6,6.6s2.9,6.6,6.6,6.6h6c3.6,0,6.6-2.9,6.6-6.6S25,17.4,21.4,17.4z"/>
<path d="M33,9.5H15C7,9.5,0.5,16,0.5,24S7,38.5,15,38.5h17.9c8,0,14.6-6.5,14.6-14.5S41,9.5,33,9.5z M32.9,33.5H15
	c-5.2,0-9.5-4.3-9.5-9.5s4.3-9.5,9.5-9.5h18c5.2,0,9.5,4.3,9.5,9.5C42.5,29.3,38.3,33.5,32.9,33.5z"/>
</svg>
