<?xml version="1.0" encoding="utf-8"?>
<svg version="1.1" xmlns="http://www.w3.org/2000/svg" xmlns:xlink="http://www.w3.org/1999/xlink" width="32" height="32" viewBox="0 0 32 32">
    <path d="M3.167 19.151l9.362 9.361c-0.499 0.25-1.041 0.332-1.623 0.25-0.583-0.084-1.082-0.333-1.498-0.749l-7.614-7.614c-0.541-0.54-0.811-1.164-0.811-1.873 0-0.707 0.27-1.331 0.811-1.873l10.236-10.235c0.54-0.54 1.247-0.988 2.122-1.341s1.664-0.531 2.371-0.531l-13.356 13.355c-0.416 0.416-0.416 0.833 0 1.25zM27.883 4.545h-6.117c-0.708 0-1.498 0.177-2.371 0.531s-1.582 0.802-2.122 1.341l-10.236 10.235c-0.541 0.542-0.811 1.166-0.811 1.873 0 0.708 0.269 1.332 0.811 1.873l7.615 7.614c0.54 0.54 1.164 0.812 1.873 0.812 0.707 0 1.331-0.272 1.873-0.812l10.235-10.235c0.54-0.539 0.988-1.247 1.341-2.122 0.354-0.874 0.531-1.664 0.531-2.371v-6.116c0-0.707-0.26-1.321-0.78-1.842-0.521-0.521-1.134-0.781-1.841-0.781zM26.229 12.503c-0.521 0.521-1.134 0.78-1.841 0.78-0.709 0-1.322-0.26-1.842-0.78s-0.78-1.133-0.78-1.842c0-0.707 0.26-1.32 0.78-1.841 0.521-0.519 1.133-0.78 1.842-0.78 0.707 0 1.319 0.26 1.841 0.78 0.52 0.521 0.78 1.135 0.78 1.841 0 0.708-0.261 1.322-0.78 1.842z"></path>
</svg>
