<?xml version="1.0" encoding="UTF-8"?>
<svg version="1.1" xmlns="http://www.w3.org/2000/svg" width="42" height="32" viewBox="0 0 42 32" >
  <path d="M41.6,6.24915825 C41.6,6.9674523 41.3495054,7.57800224 40.8485161,8.08080808 L21.4172903,27.5824916 L17.7672258,31.2457912 C17.2662366,31.7485971 16.6578925,32 15.9421935,32 C15.2264946,32 14.6181505,31.7485971 14.1171613,31.2457912 L10.4670968,27.5824916 L0.751483871,17.8316498 C0.250494624,17.328844 0,16.7182941 0,16 C0,15.2817059 0.250494624,14.671156 0.751483871,14.1683502 L4.40154839,10.5050505 C4.90253763,10.0022447 5.51088172,9.75084175 6.22658065,9.75084175 C6.94227957,9.75084175 7.55062366,10.0022447 8.0516129,10.5050505 L15.9421935,18.4511785 L33.5483871,0.754208754 C34.0493763,0.251402918 34.6577204,0 35.3734194,0 C36.0891183,0 36.6974624,0.251402918 37.1984516,0.754208754 L40.8485161,4.41750842 C41.3495054,4.92031425 41.6,5.5308642 41.6,6.24915825 Z" id="icon_check-copy" fill="#4C4D4E" fill-rule="nonzero"></path>
</svg>
