<svg xmlns="http://www.w3.org/2000/svg" xmlns:xlink="http://www.w3.org/1999/xlink"><symbol id="symbol-clock" viewBox="0 0 32 32">
    <path d="M20.586 23.414l-6.586-6.586v-8.828h4v7.172l5.414 5.414zM16 0c-8.837 0-16 7.163-16 16s7.163 16 16 16 16-7.163 16-16-7.163-16-16-16zM16 28c-6.627 0-12-5.373-12-12s5.373-12 12-12c6.627 0 12 5.373 12 12s-5.373 12-12 12z"/>
</symbol><symbol id="symbol-clock2" viewBox="0 0 32 32">
    <path d="M16 0c-8.837 0-16 7.163-16 16s7.163 16 16 16 16-7.163 16-16-7.163-16-16-16zM20.586 23.414l-6.586-6.586v-8.828h4v7.172l5.414 5.414-2.829 2.829z"/>
</symbol><symbol id="symbol-comments" viewBox="0 0 36 32">
    <path d="M15 0v0c8.284 0 15 5.435 15 12.139s-6.716 12.139-15 12.139c-0.796 0-1.576-0.051-2.339-0.147-3.222 3.209-6.943 3.785-10.661 3.869v-0.785c2.008-0.98 3.625-2.765 3.625-4.804 0-0.285-0.022-0.564-0.063-0.837-3.392-2.225-5.562-5.625-5.562-9.434 0-6.704 6.716-12.139 15-12.139zM31.125 27.209c0 1.748 1.135 3.278 2.875 4.118v0.673c-3.223-0.072-6.181-0.566-8.973-3.316-0.661 0.083-1.337 0.126-2.027 0.126-2.983 0-5.732-0.805-7.925-2.157 4.521-0.016 8.789-1.464 12.026-4.084 1.631-1.32 2.919-2.87 3.825-4.605 0.961-1.84 1.449-3.799 1.449-5.825 0-0.326-0.014-0.651-0.039-0.974 2.268 1.873 3.664 4.426 3.664 7.24 0 3.265-1.88 6.179-4.82 8.086-0.036 0.234-0.055 0.474-0.055 0.718z"/>
</symbol><symbol id="symbol-home" viewBox="0 0 32 32">
    <path d="M32 19l-6-6v-9h-4v5l-6-6-16 16v1h4v10h10v-6h4v6h10v-10h4z"/>
</symbol><symbol id="symbol-logo" viewBox="0 0 289 300">
    <path d="M277.253,220.265l-20.917-21.608v-52.603l20.917-21.329l9.747,9.641v75.976L277.253,220.265z M256.336,91.708V39.114 l20.917-21.625L287,27.421v75.974l-9.747,9.637L256.336,91.708z M189.563,33.264l-21.2-21.616L178.104,2h83.97l9.45,9.648 l-20.916,21.616H189.563z M183.841,91.708l-21.206,21.323l-9.458-9.637V27.421l9.458-9.932l21.206,21.625V91.708z M158.053,265.63 l1.853,0.848l0.859,1.868l-0.859,5.9l0.859,4.805l-0.859,0.545l1.403,9.94l0.539,0.617l0.774-0.617l5.959,3.248l0.696,0.787 l-0.696,3.256l-5.336,1.318l-5.966-1.318h-1.852l-3.256-1.937l-8.589,3.255l-5.339-1.937l-1.316-1.318l-0.774,0.621l-1.159-1.929 l0.621-9.941l-0.621-4.034l0.621-5.35l-0.545-3.109l-0.929-1.235l-2.471,0.461h-1.322l-0.929-1.247l-0.692-0.145l-0.776-0.773 l-0.617-1.247l2.012-1.549l4.337-0.315l5.881,1.393l0.544,1.869l-1.318,7.998l0.774,0.616l-0.774,4.043l1.318,8.531v0.617 l4.021,1.325l4.026-0.624l4.018-4.573v-2.095l2.408-3.182l1.393-8.7l0.773-0.685v-1.174l-2.166-1.318h-5.887l-0.539-2.166 l4.018-1.869l3.801,1.397L158.053,265.63z M107.326,91.708V39.114l20.91-21.625l9.747,9.938V103.4l-9.747,9.638L107.326,91.708z  M40.616,33.368L19.328,11.826l9.695-9.677L113.057,2l9.456,9.648l-20.917,21.616L40.616,33.368z M34.823,198.65l-21.201,21.614 l-9.454-9.931v-75.969l9.454-9.641l21.201,21.329V198.65z M10.513,291.551l0.619-11.34l0.54-0.532l-1.165-2.105L11.126,273v-1.319 l-1.312-1.318H7.106l-2.635-1.937v-1.403l2.635-2.094l5.884,2.094l1.313,1.403h2.168l1.861-2.723l3.246-0.774l2.714,2.094 l2.087,1.947l3.253-0.544l1.857-2.094h3.41l0.619-0.629l4.021,1.943l1.312,5.347l-1.312,9.16l1.312,9.942v0.773l1.933,0.545h2.088 v3.413l-14.708,0.616l-0.539-0.616l-6.655,0.616h-2.704l-1.159-1.932l3.872-2.636l1.313-1.325l-0.621-4.037l0.621-0.544 l-0.621-4.805l0.621-0.627l-0.621-5.349l1.933-1.864l-1.933-2.645l-4.565-0.618l-3.409,3.256l-1.395,4.042l-0.464,0.532 l1.313,11.793v1.41l1.857,1.318l0.774,0.774v2.639l-6.114,1.318L2,296.827l1.083-3.413l6.117-0.545L10.513,291.551z M27,288.283 l1.312,3.812l-0.618,0.773h2.471l2.087,0.545l3.256-1.318l-0.62-3.812l1.395-2.094l-0.763-5.19l1.313-1.32v-5.36l-3.252-3.256 l-2.091-0.7l-2.633,3.956L27,280.211l1.312,1.942L27,288.283z M58.584,290.775l0.542,0.775h2.706l1.313-1.32l-0.538-2.185 l-0.775-0.458h0.775l1.313-6.754l-0.77-5.111l0.774-5.36l-1.312-1.319l-2.168,1.864l-2.637-1.162l-0.545-0.702l-1.312,0.702h-2.706 l-0.621-5.361l11.302,1.409l0.539-0.773h1.935l2.086,2.716l0.621,12.566l-1.396,2.64l0.774,5.117v2.185l1.312,1.32l7.277-0.776 h2.715l1.312,1.32l0.544,3.411l-1.312,1.937l-2.715,0.618l-4.567-0.618l-0.539,0.618h-1.391l-0.697-0.618l-0.62,0.618l-2.087-0.618 l-6.425,1.403l-3.483-0.785l-0.539-0.618l-0.617,0.618l-3.407-0.618h-1.939l-2.089-2.649l0.776-2.71L58.584,290.775z  M68.492,254.534l0.62,3.182l-1.396,2.172l-2.396,1.32l-4.875-1.32l-0.466-3.479l1.312-1.868l3.173-1.931L68.492,254.534z  M19.353,118.876l15.471-15.481h72.503l15.187,15.481l-15.187,15.489H34.823L19.353,118.876z M113.057,235.753H29.094l-9.741-9.632 l21.203-21.637h61.04l20.917,21.637L113.057,235.753z M91.247,292.869l3.794-0.773l1.312-1.41l0.774-5.814l-0.774-10.008V273 l-5.113-3.255l-1.312-2.093v-1.949l1.86-1.319l4.565,1.319l2.714-1.863l2.633,2.492h0.541l2.166,2.094l7.819-4.042l5.341,0.545 l4.492,4.816l0.851,7.828l-0.851,15.303l4.337,2.548l-2.168,2.02l-4.027-0.616l-5.344,0.616h-2.631l-1.394-1.319v-1.936l6.734-1.319 h0.693l0.622-0.773l-0.622-3.812v-2.71l0.622-0.695l-1.315-11.873l-4.648-2.643l-4.025,2.021l-5.341,7.296l-1.858,4.575l0.541,4.658 l-0.541,1.779v0.859l1.858,1.869l4.796-0.471l-1.312,3.187v0.697l-1.314,1.319l-2.169-0.697l-1.858,0.697l-0.545-0.697l-2.709,0.697 l-3.404-0.697l-4.649,0.697l-1.312-1.319h-0.542l0.542-2.095L91.247,292.869z M108.894,292.869l-0.539,0.073l0.082-0.073H108.894z  M201.786,278.506h0.92v1.173h-0.92V278.506z M183.9,265.703l1.319-11.871h4.018l1.863,3.34l-1.167,1.318l0.623,5.343l-0.623,0.551 v0.545l2.475,1.403l6.196-0.629l3.787,0.629l0.695,2.094l-1.313,1.937h-3.182l-0.854-0.624l-6.649,1.318v1.326l-1.864,1.931 l1.319,7.212l0.545,0.628l-1.864,2.101l3.184,1.93l-1.319,1.318v2.095l2.166,1.095h0.46l1.396-3.189h0.775l0.544,0.774l5.343-5.347 h1.313l1.319,2.644l-0.696,1.929v2.095l-2.711,3.267v1.318h-0.544l-1.392,2.64l-3.183,1.319v0.622l-0.774,0.616l-4.562-0.616h-1.93 l-3.406-4.03l-1.319-3.182l0.689-1.948l-0.689-3.413l1.319-15.127l-3.795-0.7l-5.341,0.7l-2.089-1.317v-2.723l2.633-2.094 L183.9,265.703z M219.441,271.062l3.242-2.02l2.089-1.931l1.93-0.774l10.455,0.774l5.422,5.893l2.007,4.036v2.638l-0.694,0.538 l0.694,0.63l-0.694,2.095l-3.25-0.776l-3.479,1.398l-1.857-1.398l-3.25,0.776l-1.319,1.324v-0.702l-4.022-0.617l-5.336,0.617 l-0.617,0.702l1.391,4.658l3.952,3.184l5.184,2.093l2.64-0.774l0.773,0.774l6.499-5.905h2.093l0.617,1.948l-1.312,2.639 l-4.649,3.957l-7.2,1.936l-2.171-1.319h-3.787l-4.721-4.573v-1.318l-2.479-2.64l-1.313-7.303l-0.853-0.774l2.166-5.977 L219.441,271.062z M230.73,273l1.858,1.863v0.859l-1.858,3.17l4.562-0.532V273l-1.929-1.938h-2.089l-3.787-0.7l-0.774,0.7 l0.774,0.618l-0.774,0.55v2.178l0.774,0.462h0.544L230.73,273z M225.395,279.679l2.094-1.318v-1.319h-3.412L225.395,279.679z  M153.164,210.341v-75.976l9.464-9.641l21.201,21.329v52.603l-21.201,21.608L153.164,210.341z M250.607,204.484l20.916,21.637 l-9.45,9.632h-83.97l-9.74-9.632l21.213-21.637H250.607z M257.135,284.254h1.309l2.717,3.255l2.716,1.403h0.459v0.69l-0.459,0.628 l1.851,1.32l2.639-0.859l0.617,0.859v0.552l-0.617,0.773l0.617,0.544l2.638-1.317l0.774,0.773h1.931l0.545-0.773l2.631-1.411v-1.779 l2.165-1.942l-1.317-2.092l-2.166-1.932l-3.788-1.408l-4.797,0.634l-3.722-1.167l-5.421-2.645l-1.308-2.638l0.617-5.978l2.633-2.723 l3.479-1.319h8.519l4.562,2.723l2.71-2.094l0.545-0.629l1.93,1.943l0.697,2.092l-1.312,2.645l0.615,3.34v0.454h-1.166l-3.48-4.509 l-3.95-3.248l-7.817-0.773l-2.717,2.092l-1.856,1.93l-0.774,2.646l1.319,2.716l5.336,1.319l5.337,0.532l6.425,1.318l2.711,1.326 l3.255,4.658l-0.545,3.413v1.942l-5.881,5.282l-7.279,1.929l-6.733-1.929l-5.88,0.622h-1.32l-1.319-1.319l0.63-11.253 L257.135,284.254z"/>
</symbol><symbol id="symbol-mail" viewBox="0 0 32 32">
    <path d="M29 4h-26c-1.657 0-3 1.343-3 3v18c0 1.656 1.343 3 3 3h26c1.657 0 3-1.344 3-3v-18c0-1.657-1.343-3-3-3zM2.741 25.99l-0.731-0.732 8.249-8.248 0.731 0.732-8.249 8.248zM29.259 25.99l-8.249-8.248 0.731-0.732 8.249 8.248-0.731 0.732zM17 19.325v0.675h-2v-0.675l-12.997-12.050 1.272-1.272 12.725 11.798 12.725-11.798 1.272 1.272-12.997 12.050z"/>
</symbol><symbol id="symbol-menu" viewBox="0 0 32 32">
    <path d="M2.662 8.108h26.676v2.987h-26.676v-2.987zM2.662 18.459v-2.918h26.676v2.918h-26.676zM2.662 25.892v-2.987h26.676v2.987h-26.676z"/>
</symbol><symbol id="symbol-more" viewBox="0 0 32 32">
    <path d="M9.771 21.958h-10.342v-11.975h10.342v-10.16h12.457v10.16h10.342v11.975h-10.342v10.219h-12.457v-10.219z"/>
</symbol><symbol id="symbol-newspaper" viewBox="0 0 32 32">
    <path d="M27.9,8V4H0v22c0,1.1,0.9,2,2,2h27c1.7,0,3-1.3,3-3V8H27.9z M25.9,26H2V6h24L25.9,26L25.9,26z M4,10h20v2H4V10z M16,14h8v2h-8V14z M16,18h8v2h-8V18z M16,22h6v2h-6V22z M4,14h10v10H4V14z"/>
</symbol><symbol id="symbol-reply" viewBox="0 0 48 48">
    <path d="M47,48c0,0,8.9-29-26.1-37.4V0L0,21.8l20.9,21.8V33.1C41.2,28.8,47,48,47,48z"/>
</symbol><symbol id="symbol-search" viewBox="0 0 30 32">
    <path d="M20.571 14.857q0-3.304-2.348-5.652t-5.652-2.348-5.652 2.348-2.348 5.652 2.348 5.652 5.652 2.348 5.652-2.348 2.348-5.652zM29.714 29.714q0 0.929-0.679 1.607t-1.607 0.679q-0.964 0-1.607-0.679l-6.125-6.107q-3.196 2.214-7.125 2.214-2.554 0-4.884-0.991t-4.018-2.679-2.679-4.018-0.991-4.884 0.991-4.884 2.679-4.018 4.018-2.679 4.884-0.991 4.884 0.991 4.018 2.679 2.679 4.018 0.991 4.884q0 3.929-2.214 7.125l6.125 6.125q0.661 0.661 0.661 1.607z"/>
</symbol><symbol id="symbol-settings" viewBox="0 0 32 32">
    <path d="M16 21.913q1.183 0 2.087 0.904t0.904 2.087-0.904 2.087-2.087 0.904-2.087-0.904-0.904-2.087 0.904-2.087 2.087-0.904zM16 13.009q1.183 0 2.087 0.904t0.904 2.087-0.904 2.087-2.087 0.904-2.087-0.904-0.904-2.087 0.904-2.087 2.087-0.904zM16 10.087q-1.183 0-2.087-0.904t-0.904-2.087 0.904-2.087 2.087-0.904 2.087 0.904 0.904 2.087-0.904 2.087-2.087 0.904z"/>
</symbol><symbol id="symbol-survey" viewBox="0 0 32 32">
    <path d="M30.7,11.7c-0.9-2.9-3.6-4.5-5.8-4.6c2.1,1,3.8,2.8,4.5,5c0.7,2.2,0.4,4.6-0.7,6.7 C30.4,17.5,31.6,14.6,30.7,11.7z M19,10.9c-0.5-1.4-0.9-2.5-1.1-3.1L3.6,19l0.3,0.8L19,10.9z M23,12.5L20.7,6 c-0.2-0.5-0.7-0.7-1.2-0.6c-0.5,0.2-0.7,0.7-0.6,1.2l0.1,0.3l1.1,3.3l1,2.8l0.1,0.2L3.1,21.1L3.1,21l-0.2-0.5l-0.1-0.4 c0-0.1-0.1-0.2-0.1-0.3c-0.1-0.1-0.2-0.2-0.3-0.3c-0.2-0.1-0.5-0.1-0.7,0c-0.5,0.2-0.7,0.7-0.6,1.2L2,23.4C2.1,23.8,2.5,24,2.8,24 C2.9,24,3,24,3.1,24c0.4-0.1,0.6-0.5,0.6-0.9h6c-0.1,0.2-0.1,0.5-0.1,0.7c0,1.5,1.3,2.8,2.8,2.8h1.5c1.5,0,2.8-1.3,2.8-2.8 c0-0.2,0-0.5-0.1-0.7h8.1l0.1,0.3c0.1,0.4,0.5,0.6,0.9,0.6c0.1,0,0.2,0,0.3,0c0.5-0.2,0.7-0.7,0.6-1.2L23,12.5z M13.9,25.1h-1.5 c-0.7,0-1.2-0.6-1.2-1.2c0-0.3,0.1-0.5,0.2-0.7h3.5c0.1,0.2,0.2,0.4,0.2,0.7C15.1,24.5,14.6,25.1,13.9,25.1z M24.3,10 c2.4,1.2,3.5,4.5,2.2,6.8c1.2-0.6,1.9-2.5,1.3-4.2C27.3,10.9,25.6,9.9,24.3,10z"/>
</symbol><symbol id="symbol-switch" viewBox="0 0 48 48">
<path d="M21.4,17.4h-6c-3.6,0-6.6,2.9-6.6,6.6s2.9,6.6,6.6,6.6h6c3.6,0,6.6-2.9,6.6-6.6S25,17.4,21.4,17.4z"/>
<path d="M33,9.5H15C7,9.5,0.5,16,0.5,24S7,38.5,15,38.5h17.9c8,0,14.6-6.5,14.6-14.5S41,9.5,33,9.5z M32.9,33.5H15
	c-5.2,0-9.5-4.3-9.5-9.5s4.3-9.5,9.5-9.5h18c5.2,0,9.5,4.3,9.5,9.5C42.5,29.3,38.3,33.5,32.9,33.5z"/>
</symbol><symbol id="symbol-user" viewBox="0 0 34 32">
    <path d="M30.85 24.753c1.592 1.591 2.388 3.497 2.388 5.713v2.025h-32.404v-2.025c0-2.217 0.795-4.122 2.387-5.713s3.496-2.388 5.714-2.388h16.202c2.217 0 4.122 0.795 5.713 2.388zM17.036 4.138c2.217 0 4.123 0.796 5.714 2.388 1.592 1.591 2.388 3.497 2.388 5.713 0 2.219-0.796 4.123-2.388 5.714-1.591 1.592-3.497 2.387-5.714 2.387s-4.123-0.795-5.714-2.387c-1.592-1.591-2.387-3.496-2.387-5.714 0-2.217 0.795-4.122 2.387-5.713s3.495-2.388 5.714-2.388z"/>
</symbol><symbol id="symbol-arrow-down" viewBox="0 0 32 32">
    <path d="M8 4l8 8 8-8 8 8-16 16-16-16 8-8z"/>
</symbol><symbol id="symbol-arrow-left" viewBox="0 0 32 32">
    <path d="M28 8l-8 8 8 8-8 8-16-16 16-16 8 8z"/>
</symbol><symbol id="symbol-arrow-right" viewBox="0 0 32 32">
    <path d="M12 0l16 16-16 16-8-8 8-8-8-8 8-8z"/>
</symbol><symbol id="symbol-arrow-up" viewBox="0 0 32 32">
    <path d="M24 28l-8-8-8 8-8-8 16-16 16 16-8 8z"/>
</symbol><symbol id="symbol-social-facebook" viewBox="0 0 32 32">
    <path d="M22.853 1.357v4.714h-2.804q-1.536 0-2.071 0.643t-0.536 1.929v3.375h5.232l-0.696 5.286h-4.536v13.554h-5.464v-13.554h-4.554v-5.286h4.554v-3.893q0-3.321 1.857-5.152t4.946-1.83q2.625 0 4.071 0.214z"/>
</symbol><symbol id="symbol-social-github" viewBox="0 0 32 32">
    <path d="M16 0.395c-8.836 0-16 7.163-16 16 0 7.069 4.585 13.067 10.942 15.182 0.8 0.148 1.094-0.347 1.094-0.77 0-0.381-0.015-1.642-0.022-2.979-4.452 0.968-5.391-1.888-5.391-1.888-0.728-1.849-1.776-2.341-1.776-2.341-1.452-0.993 0.11-0.973 0.11-0.973 1.606 0.113 2.452 1.649 2.452 1.649 1.427 2.446 3.743 1.739 4.656 1.33 0.143-1.034 0.558-1.74 1.016-2.14-3.554-0.404-7.29-1.777-7.29-7.907 0-1.747 0.625-3.174 1.649-4.295-0.166-0.403-0.714-2.030 0.155-4.234 0 0 1.344-0.43 4.401 1.64 1.276-0.355 2.645-0.532 4.005-0.539 1.359 0.006 2.729 0.184 4.008 0.539 3.054-2.070 4.395-1.64 4.395-1.64 0.871 2.204 0.323 3.831 0.157 4.234 1.026 1.12 1.647 2.548 1.647 4.295 0 6.145-3.743 7.498-7.306 7.895 0.574 0.497 1.085 1.47 1.085 2.963 0 2.141-0.019 3.864-0.019 4.391 0 0.426 0.288 0.925 1.099 0.768 6.354-2.118 10.933-8.113 10.933-15.18 0-8.837-7.164-16-16-16z"/>
</symbol><symbol id="symbol-social-googleplus" viewBox="0 0 32 32">
    <path d="M28.434 15.967v-2.943h-2.157v2.943h-2.983v2.149h2.983v2.895h2.157v-2.895h2.983v-2.149z"/>
    <path d="M21.978 14.986h-10.51v4.332h6.090c0.059 0.096-0.259 1.114-0.501 1.583-0.318 0.608-0.815 1.225-1.312 1.634l-0.398 0.327c0 0-0.231 0.141-0.447 0.268-2.512 1.47-5.991 1.016-8.134-1.057-0.724-0.724-1.348-1.861-1.792-2.778 0.006-0.004-0.056-0.25-0.135-0.552-0.271-1.043-0.237-2.641 0.079-3.607l0.094-0.283c0 0 0.7-1.508 1.022-1.935 2.28-3.027 6.578-3.644 9.396-1.352l0.352 0.288 1.553-1.557 1.557-1.558-0.231-0.205c-4.189-3.737-10.826-3.544-15.017 0.441-0.985 0.936-2.26 3.069-2.26 3.069s0.009 0.008 0.010 0.010l-0.010-0.009-0.1 0.184c-1.39 2.593-1.435 6.547-0.103 9.478l0.179 0.393c0 0 0.15 0.332 0.677 1.137 1.898 2.901 5.158 4.81 8.577 5.026 2.992 0.189 5.736-0.622 7.806-2.3 0.213-0.17 0.443-0.404 0.443-0.404s1.68-1.955 2.214-3.009c0.813-1.599 1.406-5.247 0.93-7.435l-0.030-0.128zM4.954 14.809l-0.093-0.068c-0.046-0.034-0.326-0.249-0.719-0.554 0.518 0.401 0.73 0.561 0.812 0.623z"/>
</symbol><symbol id="symbol-social-hootsuite" viewBox="0 0 32 32">
    <path d="M20.028 6.731c-0.275-0.001-0.541 0.040-0.79 0.117 0.464 0.209 0.788 0.674 0.786 1.217-0.005 0.734-0.6 1.329-1.336 1.328-0.542-0.002-1.007-0.327-1.215-0.792-0.079 0.248-0.118 0.513-0.119 0.786-0.004 1.473 1.184 2.671 2.658 2.674 1.473 0.004 2.671-1.186 2.674-2.657s-1.185-2.67-2.658-2.674z"/>
    <path d="M13.352 9.379c-0.734-0.004-1.329-0.601-1.328-1.337 0.002-0.543 0.327-1.006 0.792-1.213-0.249-0.079-0.513-0.121-0.786-0.121-1.473-0.004-2.673 1.186-2.675 2.66-0.004 1.471 1.187 2.669 2.658 2.673 1.473 0.006 2.671-1.185 2.674-2.658 0.001-0.275-0.040-0.541-0.117-0.79-0.211 0.464-0.676 0.787-1.218 0.786z"/>
    <path d="M20.692 3.259c-1.369-0.794-2.955-1.255-4.65-1.259-1.714-0.003-3.322 0.455-4.704 1.259-1.369-0.786-2.955-1.237-4.649-1.233v9.326c-0.028 10.306 8.353 18.623 18.65 18.652v-27.979c-1.693-0.004-3.279 0.448-4.647 1.234zM20.007 13.395c-0.788-0.002-1.513-0.234-2.132-0.625l-1.871 1.859-1.859-1.871c-0.618 0.389-1.349 0.617-2.135 0.615-2.208-0.007-3.994-1.802-3.986-4.012 0.005-2.207 1.799-3.994 4.009-3.987 2.089 0.005 3.795 1.613 3.97 3.655l0.019-0.025 0.017 0.025c0.186-2.040 1.9-3.638 3.991-3.63 2.211 0.005 3.995 1.8 3.989 4.009-0.011 2.208-1.802 3.995-4.013 3.988z"/>
</symbol><symbol id="symbol-social-linkedin" viewBox="0 0 32 32">
    <path d="M12 11h5.535v2.837h0.079c0.77-1.381 2.655-2.837 5.464-2.837 5.842 0 6.922 3.637 6.922 8.367v9.633h-5.769v-8.54c0-2.037-0.042-4.657-3.001-4.657-3.005 0-3.463 2.218-3.463 4.509v8.688h-5.767v-18z"/>
    <path d="M2 11h6v18h-6v-18z"/>
    <path d="M8 6c0 1.657-1.343 3-3 3s-3-1.343-3-3c0-1.657 1.343-3 3-3s3 1.343 3 3z"/>
</symbol><symbol id="symbol-social-messenger" viewBox="0 0 32 32">
    <path d="M15.9,2.4C8.4,2.4,2.4,8,2.4,15c0,4,2,7.5,5,9.8v4.8L12,27c1.2,0.3,2.5,0.5,3.9,0.5c7.5,0,13.5-5.6,13.5-12.6
    S23.4,2.4,15.9,2.4z M17.2,19.4l-3.4-3.7l-6.7,3.7l7.4-7.9l3.5,3.7l6.6-3.7L17.2,19.4z"/>
</symbol><symbol id="symbol-social-pinterest" viewBox="0 0 32 32">
    <path d="M4.493 12.804q0-1.929 0.67-3.634t1.848-2.973 2.714-2.196 3.304-1.393 3.607-0.464q2.821 0 5.25 1.188t3.946 3.455 1.518 5.125q0 1.714-0.339 3.357t-1.071 3.161-1.786 2.67-2.589 1.839-3.375 0.688q-1.214 0-2.411-0.571t-1.714-1.571q-0.179 0.696-0.5 2.009t-0.42 1.696-0.366 1.268-0.464 1.268-0.571 1.116-0.821 1.384-1.107 1.545l-0.25 0.089-0.161-0.179q-0.268-2.804-0.268-3.357 0-1.643 0.384-3.688t1.188-5.134 0.929-3.625q-0.571-1.161-0.571-3.018 0-1.482 0.929-2.786t2.357-1.304q1.089 0 1.696 0.723t0.607 1.83q0 1.179-0.786 3.411t-0.786 3.339q0 1.125 0.804 1.866t1.946 0.741q0.982 0 1.821-0.446t1.402-1.214 1-1.696 0.679-1.973 0.357-1.982 0.116-1.777q0-3.089-1.955-4.813t-5.098-1.723q-3.571 0-5.964 2.313t-2.393 5.866q0 0.786 0.223 1.518t0.482 1.161 0.482 0.813 0.223 0.545q0 0.5-0.268 1.304t-0.661 0.804q-0.036 0-0.304-0.054-0.911-0.268-1.616-1t-1.089-1.688-0.58-1.929-0.196-1.902z"/>
</symbol><symbol id="symbol-social-pocket" viewBox="0 0 32 32">
    <path d="M28.449 2.286q1.161 0 1.964 0.813t0.804 1.973v9.268q0 3.143-1.214 6t-3.259 4.911-4.893 3.259-5.973 1.205q-3.143 0-5.991-1.205t-4.902-3.259-3.268-4.911-1.214-6v-9.268q0-1.143 0.821-1.964t1.964-0.821h25.161zM15.877 21.286q0.839 0 1.464-0.589l7.214-6.929q0.661-0.625 0.661-1.518 0-0.875-0.616-1.491t-1.491-0.616q-0.839 0-1.464 0.589l-5.768 5.536-5.768-5.536q-0.625-0.589-1.446-0.589-0.875 0-1.491 0.616t-0.616 1.491q0 0.911 0.643 1.518l7.232 6.929q0.589 0.589 1.446 0.589z"/>
</symbol><symbol id="symbol-social-sms" viewBox="0 0 32 32">
    <path d="M28.308 5.266h-24.615c-2.039 0-3.692 1.653-3.692 3.692v11.623c0 2.039 1.654 3.692 3.692 3.692h7.879l0.006 4.923 8.004-4.923h8.726c2.039 0 3.692-1.654 3.692-3.692v-11.623c0-2.040-1.654-3.692-3.692-3.692zM7.41 19.538c-0.713 0.571-1.706 0.857-2.978 0.857-1.172 0-2.209-0.22-3.11-0.661v-2.164c0.741 0.33 1.369 0.564 1.882 0.698s0.983 0.203 1.409 0.203c0.511 0 0.903-0.098 1.175-0.293s0.41-0.486 0.41-0.871c0-0.215-0.060-0.407-0.18-0.575s-0.297-0.329-0.53-0.484c-0.233-0.155-0.707-0.403-1.423-0.743-0.671-0.316-1.175-0.618-1.51-0.909s-0.604-0.628-0.804-1.014c-0.201-0.385-0.3-0.836-0.3-1.352 0-0.972 0.329-1.735 0.988-2.291s1.569-0.834 2.731-0.834c0.571 0 1.115 0.068 1.634 0.203s1.060 0.326 1.626 0.571l-0.751 1.81c-0.586-0.241-1.070-0.408-1.454-0.503s-0.76-0.143-1.13-0.143c-0.441 0-0.779 0.103-1.014 0.308s-0.353 0.473-0.353 0.804c0 0.206 0.047 0.385 0.143 0.537s0.247 0.3 0.455 0.444c0.207 0.142 0.7 0.399 1.476 0.77 1.026 0.491 1.73 0.983 2.111 1.476s0.571 1.098 0.571 1.814c0 0.991-0.357 1.772-1.071 2.343zM21.828 20.244h-2.171v-5.198c0-0.245 0.004-0.528 0.012-0.849s0.041-1.172 0.102-2.554h-0.068l-2.832 8.601h-2.134l-2.644-8.617h-0.068c0.095 1.753 0.143 2.922 0.143 3.508v5.108h-2.081v-10.983h3.17l2.599 8.398h0.045l2.757-8.398h3.17v10.982zM29.62 19.538c-0.713 0.571-1.706 0.857-2.978 0.857-1.172 0-2.209-0.22-3.11-0.661v-2.164c0.741 0.33 1.369 0.564 1.882 0.698s0.983 0.203 1.409 0.203c0.511 0 0.903-0.098 1.175-0.293s0.41-0.486 0.41-0.871c0-0.215-0.060-0.407-0.18-0.575s-0.297-0.329-0.53-0.484c-0.233-0.155-0.707-0.403-1.423-0.743-0.671-0.316-1.175-0.618-1.51-0.909s-0.604-0.628-0.804-1.014c-0.201-0.385-0.3-0.836-0.3-1.352 0-0.972 0.329-1.735 0.988-2.291s1.569-0.834 2.731-0.834c0.571 0 1.115 0.068 1.634 0.203s1.060 0.326 1.626 0.571l-0.751 1.81c-0.586-0.241-1.070-0.408-1.454-0.503s-0.76-0.143-1.13-0.143c-0.441 0-0.779 0.103-1.014 0.308s-0.353 0.473-0.353 0.804c0 0.206 0.047 0.385 0.143 0.537s0.247 0.3 0.455 0.444c0.207 0.142 0.7 0.399 1.476 0.77 1.026 0.491 1.73 0.983 2.111 1.476s0.571 1.098 0.571 1.814c0 0.991-0.357 1.772-1.071 2.343z"/>
</symbol><symbol id="symbol-social-snapchat" viewBox="0 0 32 32">
    <path d="M15.865 5.259c-1.456 0.011-2.954 0.377-4.133 1.261-0.885 0.663-1.577 1.535-2.015 2.517v0.006c-0.415 1.010-0.379 2.083-0.319 3.076v0c0.037 0.696 0.115 1.375 0.048 2.015-0.006 0.023-0.006 0.029-0.012 0.045-0.325 0.057-0.687 0.034-1.035-0.028h-0.005c-0.241-0.040-0.5-0.137-0.795-0.211-0.006 0-0.013 0-0.013-0.005-0.282-0.063-0.565 0.017-0.775 0.165 0 0-0.007 0.006-0.013 0.006-0.007 0.005-0.007 0.005-0.013 0.012-0.174 0.108-0.415 0.291-0.427 0.611 0 0.023 0 0.040 0.007 0.063 0.035 0.188 0.155 0.325 0.264 0.411 0.108 0.086 0.21 0.149 0.271 0.194 0.006 0.006 0.012 0.006 0.012 0.012 0.53 0.337 1.113 0.485 1.625 0.673v0c0.355 0.149 0.662 0.378 0.728 0.668 0.091 0.367-0.073 0.789-0.289 1.199v0c-0.571 1.084-1.425 2.025-2.472 2.716-0.547 0.36-1.167 0.628-1.817 0.793-0.007 0-0.018 0.006-0.024 0.011-0.133 0.046-0.445 0.080-0.643 0.365-0.012 0.017-0.024 0.041-0.036 0.063-0.067 0.183 0.012 0.383 0.101 0.49 0.091 0.103 0.194 0.165 0.278 0.207 0.005 0 0.005 0.005 0.012 0.005 0.541 0.297 1.137 0.429 1.677 0.561h0.007c0.391 0.085 0.753 0.13 1.047 0.25 0.012 0.023 0.042 0.121 0.115 0.275 0.097 0.286 0.138 0.623 0.253 0.976 0.030 0.097 0.12 0.177 0.229 0.2 0.247 0.051 0.385-0.029 0.403-0.035 0.012 0 0.018 0 0.030-0.005 0.909-0.148 1.818-0.285 2.647-0.087v0c0.872 0.218 1.63 0.794 2.485 1.291 0 0 0 0 0.006 0.007v0c0.565 0.342 1.221 0.673 1.979 0.703v0h0.006c0.571 0.028 1.138-0.007 1.685-0.041 0.006 0 0.006 0 0.012 0 0.469-0.045 0.927-0.193 1.323-0.434 0.006-0.005 0.011-0.005 0.017-0.011 0.897-0.491 1.697-1.079 2.575-1.445 0 0 0 0 0.006 0 0.283-0.095 0.638-0.091 1.035-0.119 0.006 0 0.006 0 0.011 0 0.729-0.023 1.451 0.016 2.173 0.108 0.024 0.005 0.048 0.005 0.073 0 0.097-0.013 0.198-0.069 0.246-0.131 0.048-0.063 0.066-0.109 0.072-0.149 0.017-0.068 0.041-0.102 0.006-0.045 0.011-0.016 0.018-0.040 0.024-0.057 0.132-0.417 0.205-0.793 0.415-1.027 0.097-0.092 0.259-0.131 0.445-0.131 0.013 0 0.030 0 0.041 0 0.627-0.069 1.192-0.286 1.727-0.468 0.005 0 0.013-0.006 0.018-0.006 0.197-0.080 0.493-0.178 0.699-0.445 0 0 0 0 0.006-0.007v0c0.169-0.228 0.090-0.537-0.151-0.68l0.007-0.005c-0.007-0.006-0.013-0.006-0.024-0.012 0 0-0.007 0-0.007-0.005v0c-0.287-0.177-0.583-0.2-0.763-0.268-0.006 0-0.006 0-0.014-0.007-1.244-0.375-2.321-1.192-3.121-2.185-0.444-0.554-0.824-1.153-1.071-1.798v-0.006c-0.097-0.28-0.102-0.582 0.042-0.765l0.006-0.005c0.223-0.309 0.638-0.503 1.077-0.657h0.007c0.487-0.159 1.016-0.347 1.456-0.719l0.006-0.005c0.066-0.063 0.151-0.143 0.211-0.258 0.060-0.119 0.090-0.302 0.012-0.462v0c-0.125-0.245-0.348-0.377-0.511-0.468v0c-0.277-0.154-0.597-0.16-0.873-0.074v0h-0.007c-0.301 0.085-0.547 0.188-0.77 0.217-0.005 0-0.012 0-0.012 0.005-0.325 0.057-0.637 0.069-0.878-0.017 0-0.034-0.005-0.103-0.013-0.183v0c-0.017-0.508 0.031-1.033 0.036-1.576 0 0 0 0 0-0.005 0.025-0.828 0.061-1.679-0.066-2.529 0-0.005 0-0.005 0-0.012-0.276-1.444-1.245-2.689-2.473-3.516-0.89-0.6-1.949-0.936-3.020-1.027v0c-0.365-0.037-0.727-0.047-1.088-0.047v0z"/>
</symbol><symbol id="symbol-social-twitter" viewBox="0 0 32 32">
    <path d="M32 6.076c-1.177 0.522-2.443 0.875-3.771 1.034 1.355-0.813 2.396-2.099 2.887-3.632-1.269 0.752-2.674 1.299-4.169 1.593-1.198-1.276-2.904-2.073-4.792-2.073-3.626 0-6.565 2.939-6.565 6.565 0 0.515 0.058 1.016 0.17 1.496-5.456-0.274-10.294-2.888-13.532-6.86-0.565 0.97-0.889 2.097-0.889 3.301 0 2.278 1.159 4.287 2.921 5.465-1.076-0.034-2.088-0.329-2.974-0.821-0.001 0.027-0.001 0.055-0.001 0.083 0 3.181 2.263 5.834 5.266 6.437-0.551 0.15-1.131 0.23-1.73 0.23-0.423 0-0.834-0.041-1.235-0.118 0.835 2.608 3.26 4.506 6.133 4.559-2.247 1.761-5.078 2.81-8.154 2.81-0.53 0-1.052-0.031-1.566-0.092 2.905 1.863 6.356 2.95 10.064 2.95 12.076 0 18.679-10.004 18.679-18.68 0-0.285-0.006-0.568-0.019-0.849 1.283-0.926 2.396-2.082 3.276-3.398z"/>
</symbol><symbol id="symbol-social-whatsapp" viewBox="0 0 32 32">
    <path d="M20.42 17.512q0.252 0 1.89 0.853t1.735 1.027q0.039 0.097 0.039 0.291 0 0.64-0.329 1.473-0.31 0.756-1.376 1.269t-1.977 0.514q-1.105 0-3.682-1.202-1.899-0.872-3.295-2.287t-2.868-3.585q-1.395-2.074-1.376-3.76v-0.155q0.058-1.764 1.434-3.062 0.465-0.426 1.008-0.426 0.116 0 0.349 0.029t0.368 0.029q0.368 0 0.514 0.126t0.3 0.533q0.155 0.388 0.64 1.705t0.485 1.453q0 0.407-0.669 1.114t-0.669 0.901q0 0.136 0.097 0.291 0.659 1.415 1.977 2.655 1.085 1.027 2.926 1.957 0.233 0.136 0.426 0.136 0.291 0 1.046-0.94t1.008-0.94zM16.486 27.783q2.461 0 4.719-0.969t3.886-2.597 2.597-3.886 0.969-4.719-0.969-4.719-2.597-3.886-3.886-2.597-4.719-0.969-4.719 0.969-3.886 2.597-2.597 3.886-0.969 4.719q0 3.934 2.326 7.132l-1.531 4.515 4.69-1.492q3.062 2.015 6.686 2.015zM16.486 1q2.965 0 5.669 1.163t4.661 3.12 3.12 4.661 1.163 5.669-1.163 5.669-3.12 4.661-4.661 3.12-5.669 1.163q-3.779 0-7.074-1.822l-8.081 2.597 2.636-7.849q-2.093-3.45-2.093-7.539 0-2.965 1.163-5.669t3.12-4.661 4.661-3.12 5.669-1.163z"/>
</symbol></svg>