<svg xmlns="http://www.w3.org/2000/svg" xmlns:xlink="http://www.w3.org/1999/xlink" version="1.1" viewBox="0 0 24 30" xml:space="preserve">
    <path d="M8,3.48c-0.276,0-0.5,0.224-0.5,0.5s0.224,0.5,0.5,0.5c0.802,0.001,1.556,0.313,2.122,0.879 c0.098,0.097,0.226,0.146,0.354,0.146s0.256-0.049,0.352-0.146c0.195-0.195,0.195-0.512,0-0.707C10.073,3.897,9.068,3.48,8,3.48z M17.853,9.626l-0.127-0.127c-0.657-0.658-1.531-1.02-2.461-1.02h-0.847c0.055-0.336,0.082-0.671,0.082-1 c0-3.584-2.916-6.5-6.5-6.5c-0.537,0-1.072,0.067-1.594,0.199L5.853,0.625c-0.195-0.195-0.512-0.195-0.707,0l-4,4 c-0.195,0.195-0.195,0.512,0,0.707l0.553,0.553C1.567,6.407,1.5,6.942,1.5,7.479c0,3.919,3.506,7.076,7.521,6.415l0.022,0.975 c0.021,0.938,0.429,1.841,1.119,2.478c0.096,0.088,0.217,0.132,0.339,0.132c0.128,0,0.256-0.048,0.352-0.146l7-7 C18.048,10.138,18.048,9.821,17.853,9.626z M10.521,16.253c-0.296-0.406-0.466-0.899-0.477-1.406l-0.036-1.577 c-0.003-0.153-0.076-0.296-0.198-0.388c-0.088-0.066-0.194-0.101-0.302-0.101c-0.042,0-0.084,0.006-0.125,0.016 c-3.615,0.931-6.881-1.836-6.881-5.318c0-0.539,0.08-1.076,0.237-1.596c0.054-0.177,0.005-0.369-0.125-0.499L2.209,4.979 l3.293-3.293l0.405,0.405c0.131,0.13,0.321,0.179,0.499,0.125c0.519-0.157,1.056-0.237,1.596-0.237c3.033,0,5.5,2.467,5.5,5.5 c0,0.448-0.061,0.911-0.181,1.375c-0.039,0.149-0.007,0.309,0.088,0.431c0.095,0.122,0.241,0.194,0.396,0.194h1.462 c0.555,0,1.081,0.181,1.513,0.515L10.521,16.253z M17.752,13.137c-0.24-0.139-0.546-0.056-0.684,0.182 c-0.138,0.24-0.057,0.545,0.182,0.684c2.931,1.699,4.751,5.138,4.751,8.976c0,0.276,0.224,0.5,0.5,0.5s0.5-0.223,0.5-0.501 C23.001,18.784,20.99,15.014,17.752,13.137z M14.252,16.638c-0.241-0.139-0.546-0.057-0.684,0.182 c-0.138,0.24-0.057,0.545,0.182,0.684c1.983,1.149,3.54,3.213,4.272,5.66c0.065,0.217,0.264,0.357,0.479,0.357 c0.048,0,0.096-0.007,0.144-0.022c0.265-0.079,0.415-0.357,0.336-0.622C18.177,20.188,16.453,17.914,14.252,16.638z M16.002,14.887c-0.241-0.14-0.546-0.057-0.684,0.182c-0.138,0.24-0.057,0.545,0.182,0.684c2.447,1.419,4.178,4.146,4.631,7.297 c0.037,0.249,0.25,0.429,0.495,0.429c0.023,0,0.047-0.001,0.072-0.006c0.273-0.039,0.463-0.293,0.424-0.566 C20.626,19.456,18.711,16.458,16.002,14.887z"/>
</svg>
