<svg xmlns="http://www.w3.org/2000/svg" xmlns:xlink="http://www.w3.org/1999/xlink" version="1.1" viewBox="0 0 24 30" style="enable-background:new 0 0 24 24;" xml:space="preserve">
<path d="M9.497,11.465h-1c-0.188,0-0.36,0.105-0.445,0.272s-0.069,0.369,0.041,0.521c0.874,1.207,1.246,1.207,1.405,1.207    c0.551,0,0.999-0.449,0.999-1C10.497,11.914,10.048,11.465,9.497,11.465z M20.666,1.494c-3.325-1.195-4.888,0.18-6.268,1.393    l-0.229,0.2c-0.824,0.716-1.381,1.574-1.787,2.2c-0.126,0.194-0.273,0.421-0.385,0.567c-0.112-0.146-0.259-0.373-0.385-0.567    c-0.407-0.626-0.963-1.484-1.787-2.2l-0.229-0.2c-1.38-1.212-2.944-2.586-6.268-1.393c-2.403,0.863-3.296,4.83-3.331,7.965    c-0.022,2.045,0.722,3.805,2.042,4.828c0.626,0.485,1.318,0.74,1.973,0.74c0.211,0,0.417-0.026,0.615-0.078    c0.772-0.208,1.438-0.95,1.799-1.896c0.07,0.709,0.287,1.335,0.718,1.766c0.557,0.557,0.987,1.938,1.403,3.274    c0.746,2.395,1.517,4.872,3.451,4.872c1.933,0,2.704-2.477,3.451-4.872c0.416-1.336,0.846-2.717,1.403-3.274    c0.431-0.43,0.648-1.055,0.718-1.763c0.361,0.944,1.027,1.685,1.797,1.892c0.774,0.208,1.664-0.003,2.442-0.582    c1.308-0.971,2.125-2.798,2.188-4.886C24.097,6.137,23.106,2.37,20.666,1.494z M5.704,11.745c-0.072,1.142-0.75,2.079-1.337,2.237    c-0.506,0.137-1.148-0.045-1.716-0.485c-1.054-0.817-1.673-2.322-1.654-4.026c0.032-2.938,0.881-6.393,2.669-7.035    C4.453,2.153,5.11,2.033,5.678,2.033c1.431,0,2.298,0.762,3.258,1.604l0.233,0.204c0.718,0.624,1.209,1.382,1.604,1.99    c0.097,0.151,0.187,0.29,0.274,0.415c-0.038,0.079-0.056,0.168-0.048,0.262c0.044,0.511-0.432,1.328-1.185,2.03    C9.282,9.034,8.766,9.33,8.404,9.434C8.015,7.785,6.748,5.541,5.211,5.043C4.682,4.871,3.893,4.831,3.137,5.617    C2.212,6.576,1.78,8.038,1.981,9.527c0.148,1.101,0.619,1.986,1.26,2.367c0.704,0.418,1.165,0.096,1.331-0.062    c0.454-0.432,0.531-1.304,0.359-2.19C5.651,10.349,5.738,11.207,5.704,11.745z M7.028,9.294c-0.161,0.44-0.302,0.922-0.412,1.416    C6.353,9.507,5.511,8.548,4.187,8.004c-0.193-0.08-0.418-0.03-0.56,0.126C3.485,8.286,3.456,8.514,3.555,8.7    c0.595,1.124,0.519,2.254,0.355,2.4c-0.014,0-0.068-0.011-0.157-0.064c-0.303-0.181-0.661-0.758-0.78-1.641    c-0.16-1.19,0.17-2.342,0.884-3.083C4.186,5.97,4.518,5.87,4.902,5.995c0.911,0.296,1.874,1.719,2.341,3.049    C7.148,9.101,7.069,9.183,7.028,9.294z M16.145,14.112c-0.732,0.731-1.178,2.165-1.651,3.684    c-0.609,1.954-1.298,4.169-2.496,4.169s-1.888-2.215-2.496-4.169c-0.473-1.518-0.92-2.953-1.651-3.684    c-0.564-0.564-0.596-2.075-0.12-3.749c0.059,0.039,0.114,0.085,0.188,0.096c1.035,0.166,2.234-0.868,2.577-1.188    c0.324-0.302,1.267-1.258,1.468-2.306c0.022,0.001,0.044,0.001,0.066,0c0.201,1.048,1.144,2.004,1.468,2.306    c0.343,0.32,1.544,1.353,2.577,1.188c0.074-0.012,0.13-0.057,0.189-0.097C16.741,12.037,16.708,13.549,16.145,14.112z     M17.378,10.706c-0.109-0.492-0.25-0.973-0.41-1.412c-0.041-0.112-0.122-0.194-0.216-0.251c0.467-1.33,1.43-2.753,2.34-3.048    c0.384-0.125,0.717-0.025,1.045,0.317c0.714,0.741,1.044,1.894,0.884,3.083c-0.119,0.884-0.477,1.461-0.78,1.641    c-0.087,0.052-0.14,0.063-0.131,0.073c-0.19-0.16-0.265-1.288,0.329-2.41c0.098-0.186,0.07-0.414-0.072-0.57    c-0.141-0.155-0.365-0.205-0.56-0.126C18.484,8.546,17.642,9.504,17.378,10.706z M22.997,9.451    c-0.054,1.785-0.721,3.323-1.784,4.113c-0.53,0.395-1.107,0.548-1.586,0.419c-0.587-0.158-1.265-1.095-1.337-2.237    c-0.034-0.538,0.053-1.396,0.773-2.103c-0.172,0.886-0.095,1.758,0.359,2.193c0.166,0.159,0.626,0.48,1.331,0.062    c0.641-0.381,1.112-1.266,1.26-2.367c0.2-1.489-0.232-2.951-1.156-3.91c-0.756-0.786-1.544-0.745-2.073-0.575    c-1.538,0.498-2.805,2.743-3.194,4.391c-0.362-0.104-0.879-0.4-1.41-0.896c-0.753-0.702-1.229-1.518-1.185-2.03    c0.009-0.094-0.009-0.183-0.048-0.262c0.086-0.126,0.176-0.265,0.274-0.415c0.395-0.609,0.886-1.366,1.604-1.99l0.233-0.204    c1.342-1.179,2.502-2.197,5.27-1.203C22.198,3.109,23.086,6.474,22.997,9.451z M10.998,19.465c-0.276,0-0.5,0.224-0.5,0.5    s0.224,0.5,0.5,0.5c0.276,0,0.5-0.224,0.5-0.5S11.274,19.465,10.998,19.465z M15.498,11.465h-1c-0.551,0-1,0.449-1,1    c0,0.551,0.449,1,1,1c0.159,0,0.532,0,1.405-1.207c0.11-0.152,0.125-0.354,0.04-0.521C15.858,11.57,15.686,11.465,15.498,11.465z     M12.998,19.465c-0.276,0-0.5,0.224-0.5,0.5s0.224,0.5,0.5,0.5c0.276,0,0.5-0.224,0.5-0.5S13.274,19.465,12.998,19.465z"/>
</svg>
