<svg xmlns="http://www.w3.org/2000/svg" xmlns:xlink="http://www.w3.org/1999/xlink" version="1.1" viewBox="0 0 24 30" xml:space="preserve">
<path d="M18.057,17.077c0.314-0.462,0.472-1.006,0.432-1.573c-0.006-0.086-0.028-0.167-0.043-0.251l3.994-4.393 c0.696-0.766,0.847-1.899,0.376-2.82L22.02,6.484c0.843-1.957,0.428-3.316-0.083-4.121c-0.968-1.524-3.053-2.364-5.871-2.364 c-0.202,0-0.385,0.122-0.462,0.309c-0.078,0.187-0.035,0.402,0.108,0.545c1.145,1.145,1.806,1.922,2.1,2.336 c-0.4,0.063-1.027,0.089-1.478-0.094c-0.317-0.129-0.376-0.301-0.396-0.358c-0.086-0.25-0.349-0.393-0.604-0.32 c-0.254,0.07-0.411,0.324-0.359,0.582c0.401,1.976,1.336,3.432,2.633,4.099c1.045,0.536,2.262,0.549,3.622,0.039l0.695,1.359 c0.282,0.553,0.191,1.233-0.226,1.692l-3.676,4.044c-0.115-0.161-0.244-0.313-0.398-0.445l-1.493-1.313 c0.232-0.266,0.368-0.609,0.368-0.974c0-0.827-0.673-1.5-1.5-1.5c-0.438,0-0.834,0.191-1.107,0.504l-1.565-1.377 c-0.008-0.007-0.019-0.01-0.028-0.017c-0.016-0.012-0.032-0.019-0.05-0.03c-0.075-0.045-0.156-0.074-0.241-0.076 c-0.004,0-0.007-0.003-0.01-0.003h-0.005c-0.005,0-0.009,0.004-0.014,0.004c-0.078,0.003-0.153,0.029-0.223,0.068 c-0.021,0.012-0.04,0.021-0.058,0.035c-0.01,0.007-0.021,0.01-0.03,0.018l-1.563,1.375c-0.272-0.312-0.667-0.501-1.104-0.501 c-0.827,0-1.5,0.673-1.5,1.5c0,0.363,0.136,0.706,0.366,0.971l-1.493,1.314c-0.154,0.132-0.283,0.284-0.398,0.444l-3.674-4.041 C1.884,9.73,1.793,9.05,2.076,8.497l0.695-1.359c1.359,0.51,2.576,0.497,3.622-0.039C7.69,6.432,8.625,4.976,9.026,3 c0.052-0.258-0.105-0.513-0.359-0.582c-0.257-0.073-0.519,0.07-0.604,0.32c-0.02,0.056-0.079,0.229-0.396,0.358 C7.216,3.279,6.589,3.253,6.19,3.19c0.294-0.414,0.954-1.191,2.099-2.336c0.143-0.143,0.186-0.358,0.108-0.545 C8.32,0.122,8.137,0,7.935,0C5.117,0,3.031,0.84,2.064,2.364C1.552,3.169,1.138,4.528,1.981,6.485L1.185,8.041 c-0.471,0.921-0.32,2.054,0.376,2.82l3.99,4.389c-0.015,0.085-0.037,0.168-0.044,0.255c-0.041,0.568,0.118,1.113,0.43,1.572 c-0.931,0.164-1.96,0.671-2.764,1.46C2.41,19.286,1.5,20.581,1.5,22.501c0,0.276,0.224,0.5,0.5,0.5s0.5-0.224,0.499-0.5 c0-1.573,0.748-2.635,1.374-3.25c0.899-0.881,1.969-1.279,2.617-1.25c0.059-0.006,0.111-0.023,0.163-0.041l0.486,0.574 c-1,0.152-2.912,0.858-3.484,2.24c-0.279,0.674-0.334,1.756,0.991,3.081C4.744,23.952,4.872,24.001,5,24.001 c0.128,0,0.256-0.049,0.353-0.146c0.195-0.195,0.195-0.512,0-0.707c-0.75-0.75-1.011-1.42-0.774-1.991 c0.419-1.012,2.256-1.655,2.92-1.655c0.133,0,0.252-0.054,0.342-0.139l0.199,0.235c-0.531,0.187-1.159,0.645-1.422,1.327 c-0.242,0.626-0.259,1.642,1.028,2.929C7.744,23.952,7.872,24.001,8,24.001c0.128,0,0.256-0.049,0.352-0.146 c0.195-0.195,0.195-0.512,0-0.707c-0.5-0.501-1.046-1.23-0.802-1.863c0.199-0.516,0.815-0.776,0.974-0.784 c0.082-0.004,0.155-0.032,0.221-0.07l2.871,3.39c0.018,0.021,0.043,0.031,0.064,0.049c0.027,0.023,0.051,0.046,0.083,0.063 c0.057,0.031,0.119,0.047,0.184,0.053c0.017,0.002,0.031,0.014,0.048,0.014H12c0.015,0,0.027-0.012,0.042-0.013 c0.07-0.007,0.135-0.026,0.196-0.06c0.029-0.017,0.052-0.037,0.077-0.059c0.021-0.018,0.046-0.028,0.064-0.049l2.872-3.391 c0.067,0.039,0.14,0.068,0.223,0.072c0.16,0.008,0.775,0.268,0.974,0.784c0.244,0.633-0.302,1.363-0.802,1.863 c-0.195,0.195-0.195,0.512,0,0.707c0.098,0.097,0.226,0.146,0.354,0.146c0.128,0,0.256-0.049,0.352-0.146 c1.287-1.286,1.269-2.303,1.028-2.929c-0.264-0.684-0.893-1.141-1.425-1.328l0.2-0.236c0.09,0.086,0.21,0.14,0.345,0.14 c0.663,0,2.501,0.642,2.92,1.655c0.237,0.571-0.024,1.241-0.774,1.991c-0.195,0.195-0.195,0.512,0,0.707 c0.098,0.097,0.226,0.146,0.354,0.146c0.128,0,0.256-0.049,0.353-0.146c1.325-1.325,1.27-2.407,0.991-3.081 c-0.573-1.383-2.489-2.089-3.488-2.24l0.483-0.57c0.052,0.017,0.106,0.033,0.17,0.037c0.641-0.026,1.719,0.369,2.617,1.25 c0.627,0.615,1.374,1.677,1.374,3.25c0,0.276,0.224,0.5,0.5,0.5s0.5-0.224,0.499-0.5c0-1.92-0.91-3.215-1.673-3.964 C20.018,17.744,19,17.24,18.057,17.077z M21.089,6.117c-1.174,0.489-2.191,0.52-3.024,0.091c-0.709-0.364-1.301-1.088-1.705-2.06 c0.044,0.01,0.088,0.02,0.135,0.028c0.71,0.13,2.011,0.055,2.353-0.356c0.235-0.282,0.498-0.597-1.535-2.753 c1.803,0.199,3.149,0.843,3.778,1.834C21.635,3.757,21.633,4.866,21.089,6.117z M2.906,2.901c0.629-0.99,1.975-1.634,3.778-1.834 C4.652,3.224,4.914,3.539,5.149,3.82c0.343,0.411,1.643,0.485,2.354,0.356c0.046-0.009,0.091-0.018,0.135-0.028 C7.234,5.12,6.643,5.844,5.934,6.208C5.101,6.638,4.086,6.606,2.91,6.117C2.366,4.866,2.364,3.757,2.906,2.901z M17.12,16.678 l-5.122,6.047l-5.126-6.053c-0.265-0.304-0.396-0.693-0.367-1.096c0.028-0.402,0.213-0.768,0.524-1.035l1.968-1.732 c0.133-0.117,0.194-0.295,0.161-0.469c-0.033-0.174-0.156-0.317-0.323-0.377C8.631,11.89,8.5,11.709,8.5,11.501 c0-0.276,0.224-0.5,0.5-0.5c0.226,0,0.419,0.165,0.469,0.4c0.037,0.174,0.164,0.314,0.332,0.37 c0.168,0.056,0.355,0.019,0.487-0.099l1.708-1.503l1.713,1.507c0.133,0.118,0.32,0.156,0.488,0.099 c0.169-0.056,0.295-0.197,0.332-0.371c0.051-0.237,0.244-0.403,0.471-0.403c0.276,0,0.5,0.224,0.5,0.5 c0,0.209-0.132,0.39-0.337,0.462c-0.167,0.059-0.29,0.202-0.324,0.376c-0.033,0.175,0.028,0.354,0.161,0.471l1.967,1.731 c0.002,0.002,0.003,0.003,0.005,0.004c0.307,0.262,0.491,0.629,0.52,1.031C17.521,15.979,17.391,16.368,17.12,16.678z M9.174,13.622l-1.17,1.005c-0.615,0.546-0.68,1.464-0.179,2.052l0.763,1.106C8.685,17.926,8.841,18.001,9,18.001    c0.098,0,0.197-0.029,0.284-0.088c0.227-0.157,0.284-0.468,0.127-0.696l-0.793-1.145c-0.177-0.209-0.155-0.515,0.043-0.691    l1.164-1c0.21-0.18,0.234-0.496,0.054-0.705C9.698,13.465,9.383,13.443,9.174,13.622z"/>
</svg>
