<svg xmlns="http://www.w3.org/2000/svg" xmlns:xlink="http://www.w3.org/1999/xlink" version="1.1" viewBox="0 0 24 30" xml:space="preserve">
<path d="M21.404,5.707c-0.022-0.032-0.04-0.066-0.07-0.093C15.077,0.055,8.861,2.113,6.788,4C5.722,4.084,4.363,4.437,3.673,5.996 C2.68,6.007,1.77,6.308,1.201,6.847C0.742,7.28,0.5,7.847,0.5,8.487c0,0.051,0.008,0.101,0.023,0.149 c0.002,0.004,0.23,0.737,0.378,1.376c0.038,0.161,0.152,0.293,0.306,0.353c0.155,0.061,0.329,0.04,0.464-0.053 c0.298-0.203,0.795-0.325,1.33-0.325c0.968,0,1.5,0.375,1.5,0.5s-0.532,0.5-1.5,0.5c-0.693,0-1.18-0.2-1.387-0.37 c-0.128-0.106-0.301-0.141-0.46-0.093c-0.159,0.047-0.285,0.171-0.334,0.33c-0.248,0.793-0.179,1.709,0.211,2.801 c0.072,0.202,0.262,0.332,0.47,0.332c0.029,0,0.057-0.002,0.084-0.007C1.825,13.938,2,13.73,2,13.487c0-0.438,1.005-0.5,1-0.5h2.5 c1.831,0,3.396-1.108,4.097-2.681c0.228,0.604,0.298,1.15,0.175,1.635c-0.331,1.304-1.914,2.203-3.59,3.155 c-2.194,1.246-4.68,2.658-4.68,5.391c0,0.276,0.224,0.5,0.5,0.5s0.5-0.224,0.499-0.5c0-2.15,2.028-3.302,4.174-4.521 c1.784-1.013,3.629-2.061,4.065-3.778c0.244-0.961,0.01-2.017-0.676-3.207c0.95-0.025,1.763-0.582,2.165-1.384 c2.193,0.76,4.242,1.52,4.273,5.895c0.016,2.245-1.307,3.174-2.838,4.25c-1.281,0.901-2.606,1.831-3.14,3.602 c-0.08,0.265,0.07,0.543,0.334,0.623c0.049,0.014,0.097,0.021,0.145,0.021c0.215,0,0.413-0.139,0.476-0.355 c0.435-1.44,1.563-2.233,2.758-3.072c1.539-1.081,3.283-2.307,3.264-5.076c-0.036-5.128-2.679-6.049-5.014-6.857 C12.488,6.58,12.5,6.535,12.5,6.487c0-0.023-0.01-0.043-0.013-0.065c2.205-0.819,5.662-1.696,7.879-0.255 c1.417,0.92,2.136,2.711,2.136,5.321c0,5.54-5.008,8.653-7.656,9.525c-0.262,0.086-0.405,0.369-0.319,0.631 c0.069,0.211,0.265,0.344,0.475,0.344c0.052,0,0.104-0.008,0.155-0.024c2.886-0.95,8.344-4.363,8.344-10.475 C23.501,8.821,22.792,6.884,21.404,5.707z M10.002,7.987h-0.5c-0.276,0-0.5,0.224-0.5,0.5c0,1.93-1.57,3.5-3.5,3.5H2.988 c-0.371,0.01-0.871,0.101-1.276,0.334c-0.029-0.195-0.041-0.378-0.036-0.552c0.389,0.14,0.848,0.218,1.326,0.218 c1.425,0,2.5-0.645,2.5-1.5s-1.075-1.5-2.5-1.5c-0.459,0-0.899,0.07-1.277,0.199c-0.092-0.337-0.18-0.633-0.222-0.769 C1.518,8.08,1.645,7.804,1.889,7.574C2.325,7.163,3.125,6.94,3.974,6.986c0.177,0.01,0.433,0.017,0.739,0.023 c0.252,0.294,0.722,0.478,1.289,0.478c0.553,0,1.016-0.178,1.273-0.464c1.576-0.003,3.267-0.019,4.139-0.029 C11.206,7.572,10.651,7.987,10.002,7.987z M10.87,6C9.871,6.01,8.363,6.023,6.984,6.024C6.738,6.025,6.564,6.116,6.527,6.36 C6.488,6.4,6.302,6.487,6,6.487c-0.264,0-0.441-0.068-0.508-0.111c-0.06-0.209-0.25-0.359-0.474-0.362 C4.932,6.013,4.865,6.012,4.785,6.01C5.216,5.36,5.909,5.049,7.03,4.986C7.153,4.979,7.269,4.927,7.356,4.84 c0.929-0.929,5.309-3.349,10.61-0.405C15.274,4.259,12.335,5.353,10.87,6z"/>
</svg>
