<svg xmlns="http://www.w3.org/2000/svg" xmlns:xlink="http://www.w3.org/1999/xlink" version="1.1" viewBox="0 0 24 30" xml:space="preserve">
<path d="M23.975,15.878c-0.004-0.017,0-0.035-0.006-0.052l-2.797-7.458c1.61-0.447,2.329-1.822,2.8-3.206 c0.078-0.229-0.02-0.482-0.232-0.599c-0.211-0.117-0.478-0.065-0.63,0.124c-1.014,1.257-5.47-0.116-8.133-0.937 c-0.425-0.131-0.825-0.255-1.188-0.361C13.926,3.115,14,2.813,14,2.499c0-1.103-0.897-2-2-2c-1.103,0-2,0.897-2,2 c0,0.313,0.074,0.617,0.211,0.889c-0.362,0.107-0.763,0.23-1.188,0.361C6.36,4.571,1.903,5.942,0.889,4.686 C0.736,4.497,0.47,4.444,0.258,4.563C0.047,4.68-0.051,4.932,0.027,5.161c0.472,1.384,1.188,2.76,2.802,3.206l-2.789,7.439 c0,0,0,0.001,0,0.001l-0.007,0.019c-0.005,0.013-0.001,0.027-0.005,0.04C0.015,15.909,0,15.953,0,16 c0,0.018,0.005,0.034,0.005,0.051c0.001,0.007,0.001,0.013,0.002,0.019C0.045,17.968,1.594,19.5,3.5,19.5 c1.903,0,3.451-1.531,3.492-3.425c0.001-0.01,0.002-0.018,0.003-0.028C6.995,16.031,7,16.016,7,16 c0-0.044-0.014-0.083-0.025-0.123c-0.004-0.017,0-0.035-0.006-0.052L4.222,8.5c0.111-0.004,0.207,0.008,0.325-0.003 c1.045-0.099,2.117-0.499,3.062-0.853C8.283,7.391,9.297,7.01,9.526,7.157c0.489,1.466,1.077,11.575,0.57,12.548 c-0.224,0.309-0.873,0.567-1.78,0.708C7.554,20.532,7,21.176,7,21.951c0,0.855,0.695,1.55,1.55,1.55h6.9 c0.854,0,1.55-0.695,1.549-1.556c0-0.769-0.553-1.413-1.315-1.531c-0.907-0.141-1.556-0.399-1.771-0.692 c-0.516-0.988,0.071-11.097,0.564-12.582c0.213-0.129,1.237,0.254,1.913,0.506c0.946,0.353,2.018,0.754,3.062,0.853 c0.118,0.011,0.215-0.002,0.327,0.003l-2.739,7.304c0,0,0,0.001,0,0.001l-0.007,0.019c-0.005,0.013-0.001,0.027-0.005,0.04 C17.015,15.909,17,15.953,17,16c0,0.018,0.005,0.034,0.005,0.051c0.001,0.007,0.001,0.013,0.002,0.019 c0.038,1.897,1.587,3.43,3.493,3.43c1.903,0,3.451-1.531,3.492-3.425c0.001-0.01,0.002-0.018,0.003-0.028 C23.995,16.031,24,16.016,24,16C24,15.957,23.986,15.918,23.975,15.878z M3.5,18.5c-1.207,0-2.217-0.861-2.449-2h4.899 C5.717,17.64,4.707,18.5,3.5,18.5z M5.778,15.5H1.221L3.5,9.424L5.778,15.5z M19.546,7.503c-0.912-0.086-1.918-0.462-2.805-0.794 c-1.153-0.432-2.065-0.775-2.693-0.472c-0.25,0.119-0.43,0.328-0.523,0.605c-0.405,1.216-1.324,12.224-0.43,13.452 c0.397,0.545,1.216,0.918,2.436,1.108C15.803,21.444,16,21.672,16,21.95c0,0.303-0.247,0.55-0.55,0.55h-6.9 C8.247,22.5,8,22.254,8,21.945c0-0.272,0.198-0.501,0.47-0.543c1.22-0.19,2.039-0.563,2.435-1.107 c0.894-1.229-0.025-12.237-0.43-13.453c-0.092-0.276-0.273-0.486-0.523-0.605C9.786,6.157,9.6,6.123,9.395,6.123 c-0.57,0-1.288,0.268-2.138,0.586C6.369,7.041,5.364,7.418,4.451,7.503c-1.528,0.144-2.362-0.399-2.939-1.41 c1.973,0.412,5.14-0.566,7.804-1.387c0.721-0.222,1.367-0.422,1.877-0.553c0.184-0.047,0.324-0.195,0.364-0.38 c0.04-0.186-0.029-0.378-0.177-0.496C11.138,3.083,10.999,2.8,10.999,2.5c0-0.551,0.449-1,1-1c0.551,0,1,0.449,1,1 c0,0.301-0.139,0.584-0.381,0.777c-0.148,0.119-0.217,0.31-0.177,0.496c0.04,0.185,0.18,0.333,0.364,0.38 c0.51,0.131,1.156,0.33,1.877,0.553c2.664,0.821,5.829,1.799,7.803,1.387C21.908,7.104,21.072,7.644,19.546,7.503z M20.5,9.424 l2.278,6.076h-4.557L20.5,9.424z M20.5,18.5c-1.207,0-2.217-0.861-2.449-2h4.899C22.717,17.64,21.707,18.5,20.5,18.5z"/>
</svg>
