<svg xmlns="http://www.w3.org/2000/svg" xmlns:xlink="http://www.w3.org/1999/xlink" version="1.1" viewBox="0 0 24 30" xml:space="preserve">
<path d="M17.383,16.218c-0.238-0.138-0.544-0.061-0.685,0.176c-1.167,1.976-2.892,3.32-4.615,3.595 c-0.273,0.044-0.458,0.3-0.415,0.573c0.039,0.246,0.251,0.421,0.493,0.421c0.025,0,0.052-0.002,0.08-0.007 c2.014-0.322,4.002-1.844,5.318-4.073C17.699,16.665,17.621,16.359,17.383,16.218z M6.615,7.782 c0.08,0.047,0.168,0.069,0.254,0.069c0.171,0,0.338-0.088,0.431-0.244c1.167-1.976,2.892-3.32,4.615-3.595 c0.273-0.044,0.458-0.3,0.415-0.573c-0.043-0.272-0.295-0.458-0.573-0.415C9.742,3.346,7.755,4.868,6.438,7.097 C6.298,7.335,6.376,7.641,6.615,7.782z M23.689,6.004c-0.193-0.089-0.421-0.045-0.569,0.108c-0.729,0.759-1.276,1.37-1.696,1.838 c-0.387,0.432-0.756,0.844-0.935,0.982c-0.329-0.166-1.166-0.773-1.686-1.149C18.414,7.5,18.04,7.23,17.758,7.042 c-0.055-0.037-0.119-0.036-0.181-0.049c0.963-0.482,1.818-1.19,2.353-2.322c0.045-0.095,0.059-0.2,0.04-0.303 c-0.323-1.779-4.199-3.96-8.397-3.341l-0.055-0.11C11.082,0.047,9.9-0.145,8.921,0.051c-0.982,0.197-1.696,1.067-1.69,2.145 l0.12,0.785c-2.48,2.043-4.131,5.283-4.327,8.515c-0.036,0.116-0.313,0.457-0.537,0.731c-0.831,1.019-2.223,2.726-2.465,5.267 c-0.021,0.212,0.096,0.413,0.289,0.502c0.066,0.03,0.138,0.045,0.208,0.045c0.133,0,0.264-0.053,0.358-0.157 c0.729-0.759,1.277-1.37,1.696-1.838c0.388-0.432,0.756-0.843,0.935-0.981c0.329,0.166,1.166,0.773,1.686,1.149 c0.389,0.283,0.762,0.553,1.045,0.741c0.056,0.037,0.121,0.037,0.184,0.05c-0.964,0.482-1.82,1.19-2.356,2.323 c-0.045,0.095-0.059,0.2-0.04,0.303c0.323,1.779,4.196,3.957,8.398,3.341l0.055,0.11c0.335,0.668,1.109,0.937,1.893,0.937 c0.237,0,0.475-0.025,0.705-0.07c0.982-0.197,1.696-1.067,1.69-2.145l-0.12-0.785c2.481-2.044,4.132-5.284,4.327-8.515 c0.036-0.116,0.313-0.457,0.537-0.731c0.831-1.019,2.223-2.726,2.465-5.267C23.999,6.294,23.882,6.093,23.689,6.004z M3.574,14.044c-0.495-0.053-0.835,0.323-1.744,1.337c-0.127,0.142-0.266,0.297-0.418,0.465c0.482-1.311,1.271-2.279,1.849-2.987    c0.472-0.579,0.757-0.928,0.756-1.287c0.188-3.068,1.789-6.129,4.178-7.987c0.143-0.111,0.214-0.291,0.187-0.47L8.224,2.12    c0-0.527,0.375-0.984,0.892-1.088c0.158-0.031,0.326-0.048,0.492-0.048c0.452,0,0.883,0.12,1.012,0.381l0.225,0.45    c0.1,0.2,0.316,0.312,0.542,0.267l0.209-0.046c3.728-0.594,6.912,1.272,7.346,2.371c-0.979,1.852-3.07,2.293-5.503,2.641    c-0.152,0.024-0.297,0.051-0.443,0.077l-0.188,0.034c-0.203,0.036-0.362,0.192-0.403,0.394l-0.217,1.086    c-0.047,0.233-0.253,0.402-0.491,0.402h-0.562c-0.214,0-0.338-0.121-0.392-0.194c-0.096-0.128-0.126-0.289-0.082-0.441    c0.051-0.175,0.003-0.364-0.125-0.493c-0.128-0.128-0.318-0.18-0.492-0.127c-4.264,1.221-5.91,3.03-6.024,4.207    c-0.078,0.804,0.4,1.86,0.932,2.82C4.177,14.268,3.83,14.073,3.574,14.044z M6.406,15.322c-0.548-0.918-1.466-2.455-1.391-3.234    c0.069-0.71,1.382-2.095,4.68-3.153c0.05,0.183,0.133,0.357,0.249,0.511c0.283,0.378,0.718,0.594,1.192,0.594h0.562    c0.712,0,1.331-0.507,1.471-1.206l0.151-0.753c0.09-0.016,0.179-0.031,0.269-0.045c1.062-0.152,2.318-0.333,3.467-0.795    c-0.068,0.132-0.097,0.28-0.033,0.422c0.113,0.251,0.314,0.587,0.567,1.012c0.548,0.918,1.466,2.455,1.391,3.234    c-0.069,0.711-1.381,2.095-4.68,3.153c-0.05-0.182-0.133-0.356-0.249-0.51c-0.283-0.377-0.718-0.594-1.192-0.594h-0.562    c-0.713,0-1.332,0.508-1.471,1.206l-0.15,0.752l-0.27,0.047c-1.063,0.152-2.319,0.334-3.469,0.795    c0.069-0.133,0.099-0.282,0.035-0.424C6.86,16.083,6.659,15.747,6.406,15.322z M20.735,11.141    c-0.472,0.579-0.757,0.928-0.756,1.287c-0.188,3.068-1.789,6.128-4.178,7.987c-0.143,0.111-0.214,0.291-0.187,0.47l0.158,0.995    c0,0.527-0.376,0.984-0.893,1.088c-0.586,0.116-1.327,0.022-1.504-0.333l-0.225-0.45c-0.086-0.172-0.26-0.276-0.447-0.276    c-0.032,0-0.063,0.003-0.095,0.011c-0.007,0.001-0.201,0.044-0.208,0.046c-3.724,0.598-6.912-1.272-7.346-2.372    c0.978-1.851,3.07-2.293,5.504-2.641c0.154-0.025,0.3-0.051,0.446-0.078l0.185-0.033c0.203-0.036,0.362-0.192,0.403-0.394    l0.217-1.087c0.046-0.232,0.252-0.401,0.49-0.401h0.562c0.214,0,0.338,0.121,0.392,0.194c0.096,0.128,0.126,0.288,0.082,0.44    c-0.051,0.175-0.003,0.363,0.125,0.492c0.128,0.129,0.315,0.177,0.492,0.128c4.264-1.221,5.91-3.03,6.024-4.207    c0.078-0.804-0.4-1.86-0.932-2.82c0.776,0.545,1.123,0.741,1.379,0.769c0.491,0.054,0.835-0.325,1.743-1.338    c0.127-0.141,0.266-0.296,0.418-0.464C22.102,9.465,21.313,10.432,20.735,11.141z"/>
</svg>
