<svg xmlns="http://www.w3.org/2000/svg" xmlns:xlink="http://www.w3.org/1999/xlink" version="1.1" viewBox="0 0 24 30" xml:space="preserve">
<path d="M6.31,8.691c0.128,0,0.255-0.048,0.353-0.146l5.229-5.229c0.41,0.48,0.925,0.977,1.463,1.496 c1.241,1.195,2.646,2.55,2.646,3.688c0,0.563-0.054,1.003-0.166,1.345c-0.086,0.262,0.057,0.544,0.32,0.63 c0.051,0.017,0.104,0.025,0.155,0.025c0.211,0,0.406-0.134,0.475-0.345c0.146-0.443,0.216-0.985,0.216-1.655 c0-1.563-1.5-3.009-2.951-4.408c-0.545-0.525-1.065-1.026-1.448-1.485l0.666-0.666c0.399,0.747,1.201,1.518,2.087,2.372 c1.241,1.196,2.647,2.55,2.647,3.688c0,0.973-0.166,1.502-0.291,1.815c-0.103,0.256,0.023,0.547,0.279,0.649 c0.255,0.104,0.546-0.023,0.649-0.279c0.247-0.619,0.362-1.313,0.362-2.185c0-1.563-1.501-3.01-2.953-4.408 c-0.96-0.924-2.047-1.971-2.047-2.592c0-0.202-0.122-0.385-0.309-0.462c-0.187-0.078-0.402-0.035-0.545,0.108l-1.564,1.564 L5.956,7.838c-0.195,0.195-0.195,0.512,0,0.707C6.054,8.642,6.182,8.691,6.31,8.691z M23.854,11.648l-2-2 c-0.195-0.195-0.512-0.195-0.707,0s-0.195,0.512,0,0.707l1.145,1.145H6.81L5.948,9.776C5.863,9.607,5.69,9.5,5.501,9.5h-5 c-0.202,0-0.385,0.122-0.462,0.309c-0.078,0.187-0.035,0.402,0.108,0.545L1.793,12l-1.646,1.646 c-0.143,0.143-0.186,0.358-0.108,0.545c0.077,0.187,0.26,0.309,0.462,0.309h5c0.189,0,0.362-0.107,0.447-0.277L6.809,12.5h15.484 l-1.147,1.147c-0.195,0.195-0.195,0.512,0,0.707c0.098,0.097,0.226,0.146,0.354,0.146s0.256-0.049,0.353-0.145l2-2 C24.049,12.16,24.049,11.843,23.854,11.648z M5.192,13.5H1.708l1.146-1.147c0.195-0.195,0.195-0.512,0-0.707L1.708,10.5h3.484 l0.75,1.5L5.192,13.5z M17.989,13.535c-0.256,0.102-0.382,0.393-0.279,0.649c0.125,0.313,0.291,0.842,0.291,1.815 c0,1.138-1.406,2.493-2.647,3.688c-0.886,0.854-1.688,1.626-2.087,2.372l-0.666-0.666c0.384-0.459,0.904-0.96,1.448-1.485 c1.452-1.399,2.952-2.845,2.952-4.408c0-0.67-0.07-1.212-0.216-1.654c-0.085-0.262-0.368-0.407-0.63-0.32 c-0.263,0.086-0.406,0.368-0.32,0.63c0.112,0.342,0.166,0.782,0.166,1.345c0,1.138-1.406,2.493-2.646,3.688 c-0.538,0.519-1.054,1.016-1.463,1.496l-5.229-5.229c-0.195-0.195-0.512-0.195-0.707,0s-0.195,0.512,0,0.707l5.627,5.627 l1.564,1.564c0.096,0.095,0.224,0.146,0.354,0.146c0.064,0,0.129-0.012,0.191-0.038c0.187-0.077,0.309-0.26,0.309-0.462 c0-0.621,1.087-1.668,2.046-2.593C17.499,19.008,19,17.562,19,15.999c0-0.872-0.115-1.566-0.362-2.185 C18.536,13.558,18.245,13.432,17.989,13.535z"/>
</svg>
