<svg xmlns="http://www.w3.org/2000/svg" xmlns:xlink="http://www.w3.org/1999/xlink" version="1.1" viewBox="0 0 24 30" xml:space="preserve">
<path d="M15.5-0.003c-0.202,0-0.385,0.122-0.462,0.309c-0.078,0.187-0.035,0.402,0.108,0.545c0.858,0.857,1.388,1.467,1.66,1.826 c-0.322,0.034-0.752,0.032-1.063-0.099c-0.195-0.083-0.248-0.179-0.27-0.244c-0.086-0.25-0.351-0.391-0.604-0.32 c-0.254,0.069-0.411,0.324-0.359,0.582c0.459,2.261,2.083,3.378,4.961,3.408c-0.284,2.397-2.538,3.733-4.054,3.949 c-0.167-1.456-0.591-2.5-1.284-3.157c0.238-0.389,0.366-0.836,0.366-1.299c0-0.714-0.313-1.398-0.86-1.876 c-0.189-0.165-0.47-0.165-0.658,0C12.785,3.792,12.456,3.997,12,3.997c-0.455,0-0.785-0.204-0.981-0.376 c-0.188-0.165-0.469-0.165-0.658,0C9.814,4.099,9.5,4.784,9.5,5.497c0,0.463,0.128,0.91,0.367,1.299 C9.173,7.453,8.748,8.497,8.582,9.952C7.066,9.736,4.813,8.4,4.529,6.003c2.878-0.03,4.503-1.148,4.961-3.408 c0.052-0.258-0.105-0.513-0.359-0.582c-0.256-0.071-0.519,0.07-0.604,0.32c-0.022,0.065-0.075,0.161-0.27,0.244 C7.945,2.711,7.515,2.713,7.194,2.677c0.272-0.359,0.803-0.969,1.66-1.826C8.997,0.708,9.04,0.492,8.962,0.305 C8.885,0.118,8.702-0.003,8.5-0.003c-4.163,0-5,2.104-5,5.499V5.5c0.001,3.172,2.778,5.201,5.014,5.466 C8.508,11.141,8.5,11.313,8.5,11.497c0,0.177,0.006,0.348,0.011,0.52c-1.112,0.083-2.553,0.444-2.959,1.256 c-0.123,0.247-0.023,0.547,0.224,0.671c0.072,0.036,0.148,0.053,0.223,0.053c0.184,0,0.36-0.101,0.447-0.276 c0.128-0.256,1.009-0.628,2.129-0.707c0.035,0.347,0.084,0.678,0.143,0.995c-1.304,0.059-2.293,0.519-2.666,1.264 c-0.123,0.247-0.023,0.547,0.224,0.671c0.072,0.036,0.148,0.053,0.223,0.053c0.184,0,0.36-0.101,0.447-0.276 c0.178-0.356,0.871-0.712,2.013-0.721c0.114,0.376,0.247,0.721,0.4,1.033c-1.088,0.103-2.418,0.465-2.807,1.24 c-0.123,0.247-0.023,0.547,0.224,0.671c0.072,0.036,0.148,0.053,0.223,0.053c0.184,0,0.36-0.101,0.447-0.276 c0.143-0.286,1.222-0.717,2.528-0.723c0.494,0.579,1.098,0.916,1.787,0.981c0.866,0.938,1.118,2.047,0.755,3.386 c-0.353,1.308-0.693,1.692-1.48,1.632c-0.72-0.053-1.118-0.296-1.389-0.546C9.864,22.192,10,21.861,10,21.496 c0-0.484-0.424-0.775-0.874-1.084c-0.382-0.263-0.621-0.449-0.668-0.603c0.119-0.396,0.161-0.705-0.225-0.859 c-0.242-0.097-0.569,0.093-0.683,0.329c-0.082,0.169-0.12,0.329-0.124,0.478C7.199,20.471,7,21.134,7,21.497 c0,0.827,0.673,1.5,1.5,1.5c0.086,0,0.17-0.011,0.252-0.025c0.304,0.339,0.93,0.929,2.211,1.023 c0.073,0.006,0.143,0.008,0.211,0.008c1.666,0,2.081-1.535,2.307-2.377c0.39-1.444,0.192-2.719-0.57-3.808 c0.414-0.164,0.79-0.438,1.115-0.82c1.306,0.006,2.383,0.437,2.526,0.723c0.088,0.175,0.264,0.276,0.448,0.276 c0.075,0,0.152-0.017,0.222-0.053c0.247-0.124,0.348-0.424,0.224-0.671c-0.387-0.774-1.717-1.137-2.805-1.24 c0.153-0.312,0.286-0.656,0.4-1.033c1.141,0.01,1.833,0.365,2.011,0.721c0.088,0.175,0.264,0.276,0.448,0.276 c0.075,0,0.152-0.017,0.222-0.053c0.247-0.124,0.348-0.424,0.224-0.671c-0.372-0.745-1.361-1.205-2.665-1.264 c0.059-0.316,0.108-0.648,0.143-0.995c1.121,0.079,2,0.451,2.128,0.707c0.088,0.175,0.264,0.276,0.448,0.276 c0.075,0,0.152-0.017,0.222-0.053c0.247-0.124,0.348-0.424,0.224-0.671c-0.405-0.811-1.846-1.173-2.958-1.256 c0.005-0.172,0.011-0.343,0.011-0.52c0-0.185-0.008-0.357-0.014-0.532c2.236-0.264,5.013-2.294,5.015-5.465V5.496 C20.5,2.102,19.663-0.003,15.5-0.003z M7.243,1.078c-1.577,1.7-1.357,1.963-1.127,2.241C6.4,3.659,7.355,3.747,7.994,3.667 c-0.631,0.9-1.759,1.326-3.489,1.338C4.561,2.641,5.075,1.391,7.243,1.078z M8.5,21.997c-0.276,0-0.5-0.224-0.5-0.5 c0-0.107,0.052-0.33,0.12-0.58c0.152,0.123,0.307,0.229,0.44,0.321c0.143,0.099,0.352,0.241,0.435,0.328 C8.962,21.81,8.752,21.997,8.5,21.997z M12.003,16.997c-0.002,0-0.004,0-0.007,0c-1.47-0.004-2.496-2.264-2.496-5.499 c0-2.215,0.448-3.626,1.333-4.193c0.126-0.081,0.21-0.214,0.227-0.363c0.017-0.149-0.033-0.297-0.137-0.405 C10.65,6.253,10.5,5.884,10.5,5.497c0-0.303,0.091-0.59,0.261-0.836c0.755,0.439,1.723,0.437,2.477-0.001 c0.17,0.245,0.261,0.532,0.261,0.836c0,0.388-0.15,0.757-0.422,1.04c-0.104,0.108-0.155,0.257-0.137,0.405 c0.018,0.149,0.101,0.282,0.227,0.363c0.885,0.567,1.333,1.978,1.333,4.193C14.5,14.734,13.473,16.994,12.003,16.997z M16.006,3.667c0.639,0.081,1.594-0.008,1.879-0.349c0.23-0.277,0.449-0.54-1.128-2.241c2.168,0.314,2.682,1.564,2.738,3.928    C17.765,4.992,16.637,4.566,16.006,3.667z"/>
</svg>
