<svg xmlns="http://www.w3.org/2000/svg" xmlns:xlink="http://www.w3.org/1999/xlink" version="1.1" viewBox="0 0 24 30" xml:space="preserve">
<path d="M13,20.251c-0.276,0-0.5,0.224-0.5,0.5s0.224,0.5,0.5,0.5c0.276,0,0.5-0.224,0.5-0.5S13.276,20.251,13,20.251z M11,20.251 c-0.276,0-0.5,0.224-0.5,0.5s0.224,0.5,0.5,0.5c0.276,0,0.5-0.224,0.5-0.5S11.276,20.251,11,20.251z M22.544,1.949 c-0.247-0.311-0.461-0.579-0.579-0.882c-0.099-0.254-0.383-0.383-0.64-0.287c-0.256,0.095-0.388,0.378-0.297,0.635 c1.107,3.131-0.026,4.736-0.278,4.9c-0.596,0.343-2.498,0.572-3.756,0.724c-0.534,0.065-1.018,0.123-1.379,0.182 c-0.824-0.505-2.31-0.63-3.616-0.021c-1.305-0.608-2.79-0.484-3.614,0.022C8.024,7.163,7.54,7.104,7.006,7.04 c-1.258-0.152-3.16-0.381-3.753-0.722C2.998,6.153,1.866,4.547,2.972,1.417c0.091-0.257-0.041-0.54-0.297-0.635 c-0.257-0.096-0.541,0.033-0.64,0.287C1.916,1.372,1.703,1.641,1.456,1.952C0.807,2.769,0,3.785,0,6.251 c0,3.396,2.137,5.31,5.995,5.469c0.036,1.397,0.575,2.946,1.101,4.449c0.401,1.143,0.779,2.223,0.909,3.153 c0.064,0.462,0.255,0.84,0.515,1.163C8.513,20.574,8.5,20.663,8.5,20.751c0,1.402,1.538,2.5,3.5,2.5c1.962,0,3.5-1.098,3.499-2.5 c0-0.088-0.013-0.177-0.02-0.266c0.261-0.323,0.451-0.701,0.516-1.164c0.131-0.93,0.509-2.009,0.909-3.152 c0.526-1.503,1.065-3.051,1.101-4.449C21.864,11.562,24,9.647,24,6.248C24,3.782,23.192,2.765,22.544,1.949z M6.37,10.749 c-2.481-0.027-5.368-0.843-5.368-4.497c0-1.195,0.21-1.98,0.497-2.568c-0.08,1.984,0.711,3.19,1.254,3.502 c0.716,0.411,2.23,0.619,4.134,0.849C7.3,8.085,7.675,8.13,7.988,8.175C7.884,8.42,7.787,8.654,7.704,8.858 C7.275,9.913,7.095,10.338,6.37,10.749z M11.999,22.251c-1.355,0-2.5-0.687-2.5-1.5c0-0.102,0.01-0.212,0.027-0.326 c0-0.001,0.001-0.002,0.001-0.003c0.037-0.25,0.118-0.508,0.239-0.747c0.016-0.032,0.031-0.065,0.049-0.097 c0.031-0.055,0.068-0.107,0.105-0.158c0.025-0.036,0.051-0.072,0.079-0.106c0.038-0.047,0.08-0.09,0.123-0.133 c0.035-0.034,0.072-0.067,0.11-0.098c0.044-0.036,0.09-0.071,0.139-0.103c0.049-0.031,0.103-0.057,0.156-0.083 c0.047-0.023,0.092-0.047,0.142-0.065c0.088-0.031,0.184-0.053,0.285-0.069c0.022-0.003,0.041-0.011,0.064-0.014 c0.09,0.005,0.257,0.049,0.418,0.087c0.548,0.13,0.582,0.13,1.131,0c0.16-0.038,0.327-0.082,0.378-0.089 c0.013,0.001,0.024,0.006,0.036,0.008c0.118,0.016,0.228,0.042,0.33,0.078c0.038,0.013,0.071,0.032,0.107,0.048 c0.074,0.033,0.146,0.067,0.211,0.109c0.033,0.021,0.063,0.044,0.094,0.068c0.062,0.047,0.121,0.097,0.175,0.151 c0.023,0.024,0.047,0.047,0.069,0.072c0.056,0.064,0.107,0.131,0.154,0.201c0.013,0.02,0.028,0.04,0.041,0.06 c0.053,0.087,0.1,0.177,0.14,0.27c0.003,0.006,0.006,0.012,0.009,0.018c0.132,0.314,0.19,0.645,0.19,0.919 C14.499,21.564,13.354,22.251,11.999,22.251z M15.96,15.84c-0.398,1.137-0.775,2.213-0.934,3.203 c-0.012-0.02-0.029-0.036-0.041-0.055c-0.071-0.113-0.15-0.219-0.237-0.321c-0.039-0.046-0.077-0.09-0.119-0.134 c-0.084-0.087-0.175-0.165-0.271-0.24c-0.056-0.044-0.109-0.088-0.169-0.128c-0.107-0.07-0.224-0.127-0.344-0.182 c-0.059-0.027-0.112-0.059-0.175-0.081c-0.192-0.07-0.395-0.123-0.616-0.148c-0.169-0.016-0.372,0.027-0.72,0.11 c-0.141,0.033-0.276,0.068-0.319,0.075c-0.074-0.007-0.209-0.041-0.35-0.075c-0.348-0.083-0.554-0.125-0.721-0.11 c-0.221,0.025-0.424,0.079-0.616,0.149c-0.06,0.022-0.111,0.052-0.167,0.078c-0.123,0.056-0.243,0.114-0.353,0.187 c-0.057,0.038-0.107,0.079-0.16,0.121c-0.101,0.078-0.196,0.16-0.283,0.251c-0.037,0.039-0.072,0.078-0.106,0.119 c-0.093,0.109-0.178,0.223-0.254,0.345c-0.009,0.014-0.022,0.027-0.03,0.041c-0.159-0.99-0.536-2.068-0.934-3.205 c-0.523-1.493-1.055-3.03-1.043-4.303c0.918-0.567,1.201-1.241,1.633-2.301c0.096-0.236,0.202-0.496,0.327-0.786 c0.056-0.131,0.05-0.272-0.002-0.394c0.566-0.323,1.786-0.425,2.806,0.134c0.016,0.009,0.033,0.008,0.049,0.015 c0.031,0.013,0.062,0.023,0.096,0.03c0.034,0.007,0.066,0.009,0.099,0.009c0.028,0,0.055-0.003,0.084-0.008 c0.039-0.007,0.075-0.019,0.112-0.035c0.013-0.006,0.027-0.005,0.04-0.012c1.02-0.558,2.238-0.458,2.804-0.136 c-0.053,0.122-0.06,0.264-0.003,0.396C15.167,8.739,15.273,9,15.369,9.236c0.432,1.06,0.715,1.733,1.634,2.301 C17.014,12.811,16.483,14.348,15.96,15.84z M17.631,10.749c-0.726-0.411-0.906-0.835-1.336-1.889 c-0.083-0.205-0.181-0.44-0.285-0.685c0.314-0.045,0.691-0.091,1.105-0.141c1.905-0.23,3.418-0.438,4.134-0.849 c0.543-0.312,1.334-1.517,1.254-3.501C22.791,4.272,23,5.056,23,6.251C23,9.907,20.112,10.722,17.631,10.749z M8.374,11.817 c-0.144,0.05-0.257,0.163-0.307,0.307c-0.174,0.499-0.002,1.106,0.439,1.547c0.327,0.327,0.746,0.507,1.143,0.507 c0.139,0,0.275-0.022,0.404-0.067c0.143-0.05,0.257-0.163,0.307-0.307c0.174-0.499,0.002-1.106-0.439-1.547 C9.479,11.815,8.87,11.643,8.374,11.817z M15.626,11.817c-0.499-0.174-1.107-0.001-1.547,0.44s-0.613,1.048-0.439,1.547 c0.05,0.143,0.163,0.257,0.307,0.307c0.129,0.045,0.265,0.067,0.404,0.067c0.398,0,0.816-0.179,1.142-0.507 c0.441-0.442,0.614-1.048,0.44-1.547C15.883,11.981,15.77,11.867,15.626,11.817z"/>
</svg>
