<svg xmlns="http://www.w3.org/2000/svg" xmlns:xlink="http://www.w3.org/1999/xlink" version="1.1" viewBox="0 0 24 30" xml:space="preserve">
<path d="M22.116,5.172c-1.039-1.223-3.576-1.901-7.583-0.134c-2.748,1.212-5.135,4.719-6.878,7.281 c-0.709,1.042-1.379,2.026-1.715,2.273c-0.71,0.522-1.629,0.74-2.188,0.516c-0.288-0.115-0.46-0.344-0.525-0.702 c-0.044-0.242-0.255-0.424-0.499-0.411c-0.244,0.004-0.45,0.183-0.487,0.424c-0.101,0.657,0.023,1.349,0.341,1.962 c-0.45-0.261-0.933-0.646-1.482-1.229c-0.166-0.177-0.432-0.209-0.634-0.079c-0.203,0.129-0.284,0.385-0.194,0.608 c1.163,2.872,4.151,4.356,8.198,4.356c2.744,0,5.975-0.682,9.45-2.077c0.147-0.059,0.279-0.123,0.411-0.188l0.2-0.096 c0.248-0.114,0.336-0.46,0.226-0.71c-0.014-0.032-0.029-0.063-0.04-0.103c-0.645-2.32-2.791-2.007-3.598-1.891 c-0.048,0.007-0.093,0.014-0.129,0.021c-0.112-0.367-0.187-1.241-0.226-1.692l-0.031-0.35c-0.054-0.582-0.262-0.899-0.4-1.108 c-0.11-0.167-0.116-0.182-0.103-0.275c0.023-0.159,0.239-0.475,0.412-0.73c0.3-0.441,0.611-0.897,0.593-1.359 c-0.027-0.748,0.064-1.41,0.254-1.883c0.764,0.37,1.569,1.583,1.756,2.5l0.04,0.167c0.055,0.229,0.228,0.361,0.499,0.383 c0.196-0.006,0.367-0.124,0.444-0.298c0.005,0.045,0.007,0.094,0.007,0.147c0,0.089-0.006,0.207-0.013,0.329 c-0.02,0.379-0.029,0.612,0.023,0.788c0.231,1.833,2.269,2.995,3.264,3.326c0.016,0.011,0.067,0.046,0.084,0.055 c0.218,0.125,0.495,0.069,0.646-0.13C24.949,11.308,23.495,6.797,22.116,5.172z M21.672,13.935 c-0.773-0.325-2.311-1.22-2.44-2.491c-0.004-0.039-0.012-0.077-0.025-0.114c-0.009-0.106,0.005-0.285,0.014-0.454 c0.007-0.142,0.014-0.278,0.014-0.382c0-0.869-0.42-1.5-1-1.5c-0.1,0-0.196,0.019-0.286,0.055 c-0.498-1.146-1.512-2.388-2.643-2.55c-0.197-0.027-0.385,0.059-0.49,0.223c-0.534,0.823-0.61,1.972-0.58,2.791 c0.003,0.138-0.272,0.543-0.42,0.76c-0.255,0.375-0.519,0.762-0.575,1.151c-0.067,0.473,0.121,0.758,0.258,0.966 c0.112,0.17,0.208,0.317,0.239,0.65l0.031,0.344c0.142,1.639,0.259,2.378,0.792,2.578c0.191,0.072,0.394,0.042,0.703-0.003 c1.05-0.154,2.027-0.188,2.44,1.005c-0.05,0.022-0.1,0.045-0.154,0.066c-5.311,2.132-11.219,2.896-14.434,0.671 c0.541,0.168,1.052,0.229,1.56,0.291c0.013,0.002,0.024-0.003,0.037-0.003c0.008,0,0.015,0.005,0.023,0.005 c3.16,0,5.314-0.741,6.402-2.201c0.165-0.221,0.119-0.535-0.103-0.7c-0.221-0.164-0.535-0.118-0.7,0.103 c-0.87,1.17-2.793,1.79-5.556,1.797c-0.399-0.066-0.8-0.335-1.106-0.747c-0.035-0.047-0.068-0.095-0.099-0.143 c0.986,0.285,2.175-0.133,2.956-0.705c0.475-0.349,1.094-1.258,1.951-2.517c1.58-2.323,3.969-5.833,6.455-6.929 c3.751-1.653,5.8-0.862,6.417-0.134C22.474,7.138,23.692,10.917,21.672,13.935z"/>
</svg>
