<?xml version="1.0" encoding="utf-8"?>
<svg version="1.1" xmlns="http://www.w3.org/2000/svg" width="32" height="32" viewBox="0 0 32 32">
    <path d="M28.434 15.967v-2.943h-2.157v2.943h-2.983v2.149h2.983v2.895h2.157v-2.895h2.983v-2.149z"></path>
    <path d="M21.978 14.986h-10.51v4.332h6.090c0.059 0.096-0.259 1.114-0.501 1.583-0.318 0.608-0.815 1.225-1.312 1.634l-0.398 0.327c0 0-0.231 0.141-0.447 0.268-2.512 1.47-5.991 1.016-8.134-1.057-0.724-0.724-1.348-1.861-1.792-2.778 0.006-0.004-0.056-0.25-0.135-0.552-0.271-1.043-0.237-2.641 0.079-3.607l0.094-0.283c0 0 0.7-1.508 1.022-1.935 2.28-3.027 6.578-3.644 9.396-1.352l0.352 0.288 1.553-1.557 1.557-1.558-0.231-0.205c-4.189-3.737-10.826-3.544-15.017 0.441-0.985 0.936-2.26 3.069-2.26 3.069s0.009 0.008 0.010 0.010l-0.010-0.009-0.1 0.184c-1.39 2.593-1.435 6.547-0.103 9.478l0.179 0.393c0 0 0.15 0.332 0.677 1.137 1.898 2.901 5.158 4.81 8.577 5.026 2.992 0.189 5.736-0.622 7.806-2.3 0.213-0.17 0.443-0.404 0.443-0.404s1.68-1.955 2.214-3.009c0.813-1.599 1.406-5.247 0.93-7.435l-0.030-0.128zM4.954 14.809l-0.093-0.068c-0.046-0.034-0.326-0.249-0.719-0.554 0.518 0.401 0.73 0.561 0.812 0.623z"></path>
</svg>
