<?xml version="1.0" encoding="utf-8"?>
<svg version="1.1" xmlns="http://www.w3.org/2000/svg" xmlns:xlink="http://www.w3.org/1999/xlink" width="32" height="32" viewBox="0 0 32 32">
    <path d="M28.308 5.266h-24.615c-2.039 0-3.692 1.653-3.692 3.692v11.623c0 2.039 1.654 3.692 3.692 3.692h7.879l0.006 4.923 8.004-4.923h8.726c2.039 0 3.692-1.654 3.692-3.692v-11.623c0-2.040-1.654-3.692-3.692-3.692zM7.41 19.538c-0.713 0.571-1.706 0.857-2.978 0.857-1.172 0-2.209-0.22-3.11-0.661v-2.164c0.741 0.33 1.369 0.564 1.882 0.698s0.983 0.203 1.409 0.203c0.511 0 0.903-0.098 1.175-0.293s0.41-0.486 0.41-0.871c0-0.215-0.060-0.407-0.18-0.575s-0.297-0.329-0.53-0.484c-0.233-0.155-0.707-0.403-1.423-0.743-0.671-0.316-1.175-0.618-1.51-0.909s-0.604-0.628-0.804-1.014c-0.201-0.385-0.3-0.836-0.3-1.352 0-0.972 0.329-1.735 0.988-2.291s1.569-0.834 2.731-0.834c0.571 0 1.115 0.068 1.634 0.203s1.060 0.326 1.626 0.571l-0.751 1.81c-0.586-0.241-1.070-0.408-1.454-0.503s-0.76-0.143-1.13-0.143c-0.441 0-0.779 0.103-1.014 0.308s-0.353 0.473-0.353 0.804c0 0.206 0.047 0.385 0.143 0.537s0.247 0.3 0.455 0.444c0.207 0.142 0.7 0.399 1.476 0.77 1.026 0.491 1.73 0.983 2.111 1.476s0.571 1.098 0.571 1.814c0 0.991-0.357 1.772-1.071 2.343zM21.828 20.244h-2.171v-5.198c0-0.245 0.004-0.528 0.012-0.849s0.041-1.172 0.102-2.554h-0.068l-2.832 8.601h-2.134l-2.644-8.617h-0.068c0.095 1.753 0.143 2.922 0.143 3.508v5.108h-2.081v-10.983h3.17l2.599 8.398h0.045l2.757-8.398h3.17v10.982zM29.62 19.538c-0.713 0.571-1.706 0.857-2.978 0.857-1.172 0-2.209-0.22-3.11-0.661v-2.164c0.741 0.33 1.369 0.564 1.882 0.698s0.983 0.203 1.409 0.203c0.511 0 0.903-0.098 1.175-0.293s0.41-0.486 0.41-0.871c0-0.215-0.060-0.407-0.18-0.575s-0.297-0.329-0.53-0.484c-0.233-0.155-0.707-0.403-1.423-0.743-0.671-0.316-1.175-0.618-1.51-0.909s-0.604-0.628-0.804-1.014c-0.201-0.385-0.3-0.836-0.3-1.352 0-0.972 0.329-1.735 0.988-2.291s1.569-0.834 2.731-0.834c0.571 0 1.115 0.068 1.634 0.203s1.060 0.326 1.626 0.571l-0.751 1.81c-0.586-0.241-1.070-0.408-1.454-0.503s-0.76-0.143-1.13-0.143c-0.441 0-0.779 0.103-1.014 0.308s-0.353 0.473-0.353 0.804c0 0.206 0.047 0.385 0.143 0.537s0.247 0.3 0.455 0.444c0.207 0.142 0.7 0.399 1.476 0.77 1.026 0.491 1.73 0.983 2.111 1.476s0.571 1.098 0.571 1.814c0 0.991-0.357 1.772-1.071 2.343z"></path>
</svg>
