<?xml version="1.0" encoding="utf-8"?>
<svg version="1.1" xmlns="http://www.w3.org/2000/svg" xmlns:xlink="http://www.w3.org/1999/xlink" width="32" height="32" viewBox="0 0 32 32">
    <path d="M15.865 5.259c-1.456 0.011-2.954 0.377-4.133 1.261-0.885 0.663-1.577 1.535-2.015 2.517v0.006c-0.415 1.010-0.379 2.083-0.319 3.076v0c0.037 0.696 0.115 1.375 0.048 2.015-0.006 0.023-0.006 0.029-0.012 0.045-0.325 0.057-0.687 0.034-1.035-0.028h-0.005c-0.241-0.040-0.5-0.137-0.795-0.211-0.006 0-0.013 0-0.013-0.005-0.282-0.063-0.565 0.017-0.775 0.165 0 0-0.007 0.006-0.013 0.006-0.007 0.005-0.007 0.005-0.013 0.012-0.174 0.108-0.415 0.291-0.427 0.611 0 0.023 0 0.040 0.007 0.063 0.035 0.188 0.155 0.325 0.264 0.411 0.108 0.086 0.21 0.149 0.271 0.194 0.006 0.006 0.012 0.006 0.012 0.012 0.53 0.337 1.113 0.485 1.625 0.673v0c0.355 0.149 0.662 0.378 0.728 0.668 0.091 0.367-0.073 0.789-0.289 1.199v0c-0.571 1.084-1.425 2.025-2.472 2.716-0.547 0.36-1.167 0.628-1.817 0.793-0.007 0-0.018 0.006-0.024 0.011-0.133 0.046-0.445 0.080-0.643 0.365-0.012 0.017-0.024 0.041-0.036 0.063-0.067 0.183 0.012 0.383 0.101 0.49 0.091 0.103 0.194 0.165 0.278 0.207 0.005 0 0.005 0.005 0.012 0.005 0.541 0.297 1.137 0.429 1.677 0.561h0.007c0.391 0.085 0.753 0.13 1.047 0.25 0.012 0.023 0.042 0.121 0.115 0.275 0.097 0.286 0.138 0.623 0.253 0.976 0.030 0.097 0.12 0.177 0.229 0.2 0.247 0.051 0.385-0.029 0.403-0.035 0.012 0 0.018 0 0.030-0.005 0.909-0.148 1.818-0.285 2.647-0.087v0c0.872 0.218 1.63 0.794 2.485 1.291 0 0 0 0 0.006 0.007v0c0.565 0.342 1.221 0.673 1.979 0.703v0h0.006c0.571 0.028 1.138-0.007 1.685-0.041 0.006 0 0.006 0 0.012 0 0.469-0.045 0.927-0.193 1.323-0.434 0.006-0.005 0.011-0.005 0.017-0.011 0.897-0.491 1.697-1.079 2.575-1.445 0 0 0 0 0.006 0 0.283-0.095 0.638-0.091 1.035-0.119 0.006 0 0.006 0 0.011 0 0.729-0.023 1.451 0.016 2.173 0.108 0.024 0.005 0.048 0.005 0.073 0 0.097-0.013 0.198-0.069 0.246-0.131 0.048-0.063 0.066-0.109 0.072-0.149 0.017-0.068 0.041-0.102 0.006-0.045 0.011-0.016 0.018-0.040 0.024-0.057 0.132-0.417 0.205-0.793 0.415-1.027 0.097-0.092 0.259-0.131 0.445-0.131 0.013 0 0.030 0 0.041 0 0.627-0.069 1.192-0.286 1.727-0.468 0.005 0 0.013-0.006 0.018-0.006 0.197-0.080 0.493-0.178 0.699-0.445 0 0 0 0 0.006-0.007v0c0.169-0.228 0.090-0.537-0.151-0.68l0.007-0.005c-0.007-0.006-0.013-0.006-0.024-0.012 0 0-0.007 0-0.007-0.005v0c-0.287-0.177-0.583-0.2-0.763-0.268-0.006 0-0.006 0-0.014-0.007-1.244-0.375-2.321-1.192-3.121-2.185-0.444-0.554-0.824-1.153-1.071-1.798v-0.006c-0.097-0.28-0.102-0.582 0.042-0.765l0.006-0.005c0.223-0.309 0.638-0.503 1.077-0.657h0.007c0.487-0.159 1.016-0.347 1.456-0.719l0.006-0.005c0.066-0.063 0.151-0.143 0.211-0.258 0.060-0.119 0.090-0.302 0.012-0.462v0c-0.125-0.245-0.348-0.377-0.511-0.468v0c-0.277-0.154-0.597-0.16-0.873-0.074v0h-0.007c-0.301 0.085-0.547 0.188-0.77 0.217-0.005 0-0.012 0-0.012 0.005-0.325 0.057-0.637 0.069-0.878-0.017 0-0.034-0.005-0.103-0.013-0.183v0c-0.017-0.508 0.031-1.033 0.036-1.576 0 0 0 0 0-0.005 0.025-0.828 0.061-1.679-0.066-2.529 0-0.005 0-0.005 0-0.012-0.276-1.444-1.245-2.689-2.473-3.516-0.89-0.6-1.949-0.936-3.020-1.027v0c-0.365-0.037-0.727-0.047-1.088-0.047v0z"></path>
</svg>
