<?xml version="1.0" encoding="utf-8"?>
<svg version="1.1" xmlns="http://www.w3.org/2000/svg" width="32" height="32" viewBox="0 0 32 32">
    <path d="M20.028 6.731c-0.275-0.001-0.541 0.040-0.79 0.117 0.464 0.209 0.788 0.674 0.786 1.217-0.005 0.734-0.6 1.329-1.336 1.328-0.542-0.002-1.007-0.327-1.215-0.792-0.079 0.248-0.118 0.513-0.119 0.786-0.004 1.473 1.184 2.671 2.658 2.674 1.473 0.004 2.671-1.186 2.674-2.657s-1.185-2.67-2.658-2.674z"></path>
    <path d="M13.352 9.379c-0.734-0.004-1.329-0.601-1.328-1.337 0.002-0.543 0.327-1.006 0.792-1.213-0.249-0.079-0.513-0.121-0.786-0.121-1.473-0.004-2.673 1.186-2.675 2.66-0.004 1.471 1.187 2.669 2.658 2.673 1.473 0.006 2.671-1.185 2.674-2.658 0.001-0.275-0.040-0.541-0.117-0.79-0.211 0.464-0.676 0.787-1.218 0.786z"></path>
    <path d="M20.692 3.259c-1.369-0.794-2.955-1.255-4.65-1.259-1.714-0.003-3.322 0.455-4.704 1.259-1.369-0.786-2.955-1.237-4.649-1.233v9.326c-0.028 10.306 8.353 18.623 18.65 18.652v-27.979c-1.693-0.004-3.279 0.448-4.647 1.234zM20.007 13.395c-0.788-0.002-1.513-0.234-2.132-0.625l-1.871 1.859-1.859-1.871c-0.618 0.389-1.349 0.617-2.135 0.615-2.208-0.007-3.994-1.802-3.986-4.012 0.005-2.207 1.799-3.994 4.009-3.987 2.089 0.005 3.795 1.613 3.97 3.655l0.019-0.025 0.017 0.025c0.186-2.040 1.9-3.638 3.991-3.63 2.211 0.005 3.995 1.8 3.989 4.009-0.011 2.208-1.802 3.995-4.013 3.988z"></path>
</svg>
