<?xml version="1.0" encoding="utf-8"?>
<svg version="1.1" xmlns="http://www.w3.org/2000/svg" width="32" height="32" viewBox="0 0 32 32">
    <path d="M15.812 7.969C11.42 7.969 7.78 11.545 7.78 16a8.007 8.007 0 0 0 8.032 8.031c4.455 0 8.031-3.639 8.031-8.031 0-4.392-3.64-8.031-8.031-8.031zm0 13.176c-2.824 0-5.145-2.321-5.145-5.145 0-2.824 2.321-5.145 5.145-5.145 2.823 0 5.145 2.321 5.145 5.145 0 2.824-2.322 5.145-5.145 5.145z"/>
    <circle cx="24.157" cy="7.78" r="1.82"/>
    <path d="M28.863 3.075C27.23 1.38 24.91.502 22.275.502H9.349C3.89.502.251 4.142.251 9.6v12.863c0 2.698.878 5.02 2.635 6.713 1.694 1.632 3.953 2.448 6.526 2.448h12.8c2.698 0 4.957-.879 6.588-2.448 1.694-1.63 2.573-3.952 2.573-6.65V9.6c0-2.635-.879-4.894-2.51-6.525zm-.251 19.45c0 1.946-.69 3.514-1.82 4.58-1.13 1.068-2.698 1.632-4.58 1.632h-12.8c-1.883 0-3.451-.564-4.58-1.631-1.13-1.13-1.695-2.698-1.695-4.643V9.6c0-1.882.565-3.451 1.694-4.58 1.067-1.067 2.698-1.632 4.58-1.632h12.926c1.883 0 3.451.565 4.58 1.694 1.067 1.13 1.695 2.698 1.695 4.518v12.925z"/>
</svg>
