<?xml version="1.0" encoding="utf-8"?>
<svg version="1.1" xmlns="http://www.w3.org/2000/svg" width="32" height="32" viewBox="0 0 32 32">
    <path d="M20.42 17.512q0.252 0 1.89 0.853t1.735 1.027q0.039 0.097 0.039 0.291 0 0.64-0.329 1.473-0.31 0.756-1.376 1.269t-1.977 0.514q-1.105 0-3.682-1.202-1.899-0.872-3.295-2.287t-2.868-3.585q-1.395-2.074-1.376-3.76v-0.155q0.058-1.764 1.434-3.062 0.465-0.426 1.008-0.426 0.116 0 0.349 0.029t0.368 0.029q0.368 0 0.514 0.126t0.3 0.533q0.155 0.388 0.64 1.705t0.485 1.453q0 0.407-0.669 1.114t-0.669 0.901q0 0.136 0.097 0.291 0.659 1.415 1.977 2.655 1.085 1.027 2.926 1.957 0.233 0.136 0.426 0.136 0.291 0 1.046-0.94t1.008-0.94zM16.486 27.783q2.461 0 4.719-0.969t3.886-2.597 2.597-3.886 0.969-4.719-0.969-4.719-2.597-3.886-3.886-2.597-4.719-0.969-4.719 0.969-3.886 2.597-2.597 3.886-0.969 4.719q0 3.934 2.326 7.132l-1.531 4.515 4.69-1.492q3.062 2.015 6.686 2.015zM16.486 1q2.965 0 5.669 1.163t4.661 3.12 3.12 4.661 1.163 5.669-1.163 5.669-3.12 4.661-4.661 3.12-5.669 1.163q-3.779 0-7.074-1.822l-8.081 2.597 2.636-7.849q-2.093-3.45-2.093-7.539 0-2.965 1.163-5.669t3.12-4.661 4.661-3.12 5.669-1.163z"></path>
</svg>
