<?xml version="1.0" encoding="utf-8"?>
<svg width="32" height="32" viewBox="0 0 26 20" fill="none" xmlns="http://www.w3.org/2000/svg">
  <g clip-path="url(#clip0_20_57)">
  <path d="M25.1525 0H0.820189C0.382755 0 0 0.352303 0 0.813008V15.3117C0 15.7453 0.355415 16.1247 0.820189 16.1247H25.1798C25.6172 16.1247 26 15.7724 26 15.3117V0.813008C25.9727 0.352303 25.6172 0 25.1525 0ZM24.3596 14.4986H1.61304V1.59892H24.3596V14.4986Z" fill="#4D4E4F"/>
  <path d="M19.411 18.3469H15.228V16.9648H10.7443V18.3469H6.56136C5.95989 18.3469 5.46777 18.8347 5.46777 19.4309V20H20.4772V19.4309C20.5046 18.8347 20.0125 18.3469 19.411 18.3469Z" fill="#4D4E4F"/>
  <path d="M10.2871 11H8.9248V5.70898H7.18018V4.5752H12.0317V5.70898H10.2871V11ZM16.6855 4.5752H18.061L15.877 11H14.3916L12.2119 4.5752H13.5874L14.7959 8.39844C14.8633 8.62402 14.9321 8.8877 15.0024 9.18945C15.0757 9.48828 15.1211 9.69629 15.1387 9.81348C15.1709 9.54395 15.2808 9.07227 15.4683 8.39844L16.6855 4.5752Z" fill="#4D4E4F"/>
  </g>
  <defs>
    <clipPath id="clip0_20_57">
      <rect width="26" height="20" fill="white"/>
    </clipPath>
  </defs>
</svg>
