<?xml version="1.0" encoding="utf-8"?>
<svg xmlns="http://www.w3.org/2000/svg" viewBox="0 0 93 32" width="93" height="32">
  <path d="M10.7 3.3H4.2L1.8 1l1-1h9l1 1-2.1 2.3zm.6 10.9H3.5l-1.7-1.7 1.7-1.7h7.8l1.6 1.7-1.6 1.7zm3.3-11.5v8.2l-1 1-2.2-2.3V4l2.2-2.3 1 1zM2.9 25.1l-1-1 2.3-2.3h6.6l2.2 2.3-1 1H2.9zM.2 22.4v-8.2l1-1 2.3 2.3v5.7l-2.3 2.3-1-1.1zM26.7 3.3h-6.6L17.8 1l1-1h9l1 1-2.1 2.3zm-7.2 6.3l-2.3 2.3-1-1V2.7l1-1.1L19.5 4v5.6zm11.1-6.9v8.2l-1 1-2.2-2.3V4l2.2-2.3 1 1zM18.9 25.1l-1-1 2.3-2.3h6.6l2.2 2.3-1 1h-9.1zm-2.7-2.7v-8.2l1-1 2.3 2.3v5.7l-2.3 2.3-1-1.1zm11.1-6.9l2.2-2.3 1 1v8.2l-1 1.1-2.2-2.3v-5.7zM.1 31.3l.7-.1.1-.1.1-1.2-.1-.2.1-.5V29l-.1-.1H.5l-.3-.2v-.2l.3-.2.6.2.1.2h.2l.2-.3.3-.1.3.2.2.2.3-.1.2-.2h.4l.1-.1.6.3.1.6-.1 1 .1 1.1v.1l.2.1h.2v.4L3 31.8v-.1l-.7.1h-.4l-.1-.2.4-.3.1-.1-.1-.4.1-.1-.1-.5.1-.1-.1-.6.2-.2-.1-.3-.5-.1-.4.4-.2.4v.1l.2 1.2v.2l.2.1.1.1v.3l-.7.1-1-.1.1-.4zm3.2-2.4l-.2-.1-.3.4-.2.6.1.2-.1.7.1.4-.1.1H3l.2.1.3-.1-.1-.4.2-.2V30l.1-.1v-.6l-.4-.4zM6.7 28.3h.2l.2.3.1 1.4-.2.2.1.6v.2l.1.1.8-.1h.3l.1.1.1.4-.1.2-.3.1-.5-.1-.1.1h-.1l-.1-.1-.1.1H7l-.7.2-.4-.1-.1-.1-.1.1-.4-.1h-.1l-.2-.3.1-.3.9-.2.1.1h.3l.1-.1-.1-.2h-.1.1l.2-.8-.1-.6.1-.6-.1-.1-.2.2-.3-.1-.1-.1-.1.1h-.3l-.1-.6 1.3.1zm.5-.8l-.2.2-.3.1-.5-.1v-.4l.1-.2.3-.2.4.2.2.4zM13.1 31.8l-.4-.1-.6.1h-.3l-.2-.1v-.2l.7-.1h.1l.1-.1-.1-.4v-.3l.1-.1-.1-1.3-.5-.3-.4.2-.6.8-.2.5.1.5-.1.1v.1l.2.2h.5l-.1.3v.1l-.1.1-.2-.1-.2.1-.1-.1-.3.1H10l-.5.1-.1-.1h-.1l.1-.2.2-.2.4-.1.1-.2.1-.6-.1-1.1v-.2l-.5-.4-.1-.2v-.2l.2-.1.5.1.3-.2.3.3h.1l.2.2.8-.4.6.1.5.5.1.8-.1 1.6.5.3-.4.2zm-1.7-.5zM14.8 28.6l-.2.9.1.1-.1.4.2.9v.1l.4.1h.5l.4-.5v-.3l.2-.3.2-.9.1-.1v-.1l-.3-.2h-.6v-.2l.4-.2.4.1.2-.1.2.1.1.2-.1.7.1.5h-.1l.2 1.1v.1l.1-.1.7.4v.4l-.6.1-.7-.1h-.2l-.3-.2-.9.3-.6-.2-.2-.1v.1l-.2-.3.1-1-.1-.5.1-.5v-.4l-.2-.1h-.4l-.1-.1-.1-.1-.1-.1.2-.2h.5l.6.1zM20.3 27.4l-.1.1.1.6-.1.1v.1l.3.2.7-.1.4.1.1.2-.1.2h-.3l-.3-.1-.7.1v.1l-.2.2.1.8.1.1-.2.2.3.2-.1.1v.2l.2.1.2-.3h.1l.1.1.6-.6h.1l.1.3-.1.2v.2l-.3.4v.1h-.1l-.2.3-.3.1V32l-.5-.1H20l-.4-.4-.1-.3.1-.2-.1-.4.1-1.6-.4-.1-.6.1-.2-.1v-.3l.3-.2.8.1.1-1.3h.4l.3.2zm1.1 2.3h.1v.1h-.1v-.1zM25.8 29.1l.2.4v.3l-.1.1.1.1-.1.2-.3-.1-.4.2-.2-.2-.3.1-.1.1v-.1l-.4-.1-.6.1-.1.1.2.5.4.3.6.2.3-.1.1.1.7-.6h.2l.1.2-.1.3-.5.4-.8.2-.2-.1h-.4l-.5-.5v-.1l-.3-.3-.3-.7-.1-.1.2-.6.2-.4.3-.2.2-.2.2-.1 1.1.1.7.5zm-1.6.5h-.4l.1.3.2-.1v-.2zm.4-.7l-.4-.1-.1.1.1.1h-.1v.2h.2l.3-.2.2.2v.1l-.2.3.5-.1v-.6l-.2-.2h-.3zM29.5 28.6l.3-.2v-.1l.2.3.1.2-.1.3v.4h-.1l-.4-.5-.4-.4h-.8l-.3.2-.2.2-.1.3.1.3.6.1.6.1.7.1.3.2.3.5v.5l-.7.6-.7.2-.8-.2-.6.1h-.1l-.2-.2.1-1.2.1-.1h.1l.3.4.3.1v.2l.2.1.3-.1V31.3l.3-.1.1.1h.2l.1-.1.2-.2v-.2l.3-.2-.2-.2-.2-.2-.4-.2-.5.1-.4-.1-.6-.3-.1-.3v-.6l.3-.3.4-.2h.9zM55.6 9.6c.3 0 .5-.1.8-.2.3-.1.4-.3.4-.5 0-.3-.1-.5-.3-.6-.2-.1-.5-.2-1-.2s-.8.1-1 .3c-.2.2-.3.4-.3.7h-1.9c0-.6.2-1.2.6-1.6.5-.6 1.4-1 2.7-1 .8 0 1.5.1 2.2.5.6.3 1 .9 1 1.8v4.3c0 .3.1.4.1.5.1.1.2.2.3.2v.3h-2.1c-.1-.1-.1-.3-.1-.4 0-.1 0-.3-.1-.4-.3.3-.6.5-.9.7-.4.2-.9.4-1.4.4-.7 0-1.3-.2-1.7-.6-.4-.4-.7-.9-.7-1.6 0-.9.4-1.6 1.1-2 .4-.2 1-.4 1.7-.5l.6-.1zm1.3.9c-.1.1-.2.1-.4.2s-.3.1-.5.1l-.4.1c-.4.1-.7.2-.9.3-.3.2-.5.5-.5.8 0 .3.1.6.3.7.2.1.4.2.7.2.4 0 .8-.1 1.2-.4.4-.2.6-.7.6-1.3l-.1-.7zM65.2 6.8h2.1l-2.7 7.3h-2.1l-2.7-7.3H62l1.6 5.4zM73.3 6.9c.5.2 1 .6 1.3 1.1.3.5.5 1 .6 1.5.1.5.1 1 .1 1.5h-5.5c0 .7.3 1.3.8 1.6.3.2.7.3 1.1.3.4 0 .8-.1 1.1-.3.2-.1.3-.3.4-.5h2c-.1.4-.3.9-.7 1.3-.7.7-1.6 1.1-2.8 1.1-1 0-1.9-.3-2.7-.9-.8-.6-1.2-1.6-1.2-2.9 0-1.3.3-2.3 1-2.9.7-.7 1.6-1 2.7-1 .7-.2 1.3-.1 1.8.1zm-2.9 1.7c-.3.3-.5.7-.5 1.1h3.4c0-.5-.2-.9-.5-1.2-.3-.3-.7-.4-1.2-.4s-.9.2-1.2.5zM80.8 9.4c0-.3-.1-.5-.3-.7-.2-.3-.6-.4-1-.4-.7 0-1.1.3-1.4 1-.1.3-.2.8-.2 1.4 0 .5.1 1 .2 1.3.2.6.7.9 1.3.9.5 0 .8-.1 1-.4.2-.3.3-.6.4-.9h2c-.1.6-.3 1.2-.7 1.7-.6.8-1.5 1.3-2.7 1.3s-2.1-.4-2.7-1.1c-.6-.7-.9-1.6-.9-2.7 0-1.3.3-2.2.9-2.9.6-.7 1.5-1.1 2.6-1.1.9 0 1.7.2 2.3.6.6.4 1 1.1 1.1 2.2h-1.9zM56.5 18.1h2.1l-2.7 7.4h-2.1l-2.7-7.4h2.3l1.5 5.5zM66.1 24.6c-.6.8-1.6 1.2-2.9 1.2-1.3 0-2.3-.4-2.9-1.2-.6-.8-1-1.7-1-2.8 0-1 .3-2 1-2.8.6-.8 1.6-1.2 2.9-1.2 1.3 0 2.3.4 2.9 1.2.6.8 1 1.8 1 2.8-.1 1.1-.4 2-1 2.8zm-1.6-1.1c.3-.4.5-1 .5-1.7s-.2-1.3-.5-1.7c-.3-.4-.8-.6-1.3-.6-.6 0-1 .2-1.3.6-.3.4-.5 1-.5 1.7s.2 1.3.5 1.7c.3.4.8.6 1.3.6s1-.2 1.3-.6zM70.4 18.1v4.4c0 .4.1.7.2.9.2.4.5.6 1.1.6.7 0 1.1-.3 1.4-.8.1-.3.2-.7.2-1.1v-4h2v7.4h-1.9v-1s-.1.1-.1.2l-.3.3-.9.6c-.3.1-.7.2-1 .1-1.1 0-1.9-.4-2.2-1.2-.2-.4-.3-1.1-.3-1.9v-4.4h1.8zM78.6 23.1c0 .3.1.6.3.7.2.3.7.4 1.4.4.3 0 .6 0 .9-.2.2-.1.3-.3.3-.5s-.1-.4-.3-.5c-.2-.1-.9-.3-2.1-.6-.9-.2-1.5-.5-1.8-.8-.4-.3-.5-.8-.5-1.3 0-.7.3-1.3.8-1.8s1.3-.7 2.3-.7c.9 0 1.7.2 2.3.6.6.4.9 1 1 1.9h-2c0-.2-.1-.4-.2-.6-.2-.3-.6-.4-1.1-.4-.4 0-.7.1-.9.2-.2.1-.3.3-.3.5s.1.4.3.5c.2.1.9.3 2.1.5.8.2 1.4.5 1.8.8.4.4.6.9.6 1.4 0 .7-.3 1.4-.8 1.8-.6.5-1.4.7-2.6.7-1.2 0-2.1-.2-2.6-.7-.6-.5-.9-1.1-.9-1.9h2z"/>
  <path d="M81.5 0h-27c-6.3 0-11.4 5.1-11.4 11.5v8.9c0 .9.1 1.9.3 2.8 0 .4 0 .9-.2 1.3-.5 1-2.1 2.3-6.6 3-.3 0-.5.3-.5.6s.3.5.6.6h.6c1.4.1 2.7.2 3.9-.1.2 0 .4-.1.6-.2 1.8-.5 3.4-.8 4.5.9 0 0 0 .1.1.1 2.2 2.2 4.7 2.4 5.5 2.4h29.6c6.3 0 11.4-5.1 11.4-11.5v-8.9C93 5.2 87.9 0 81.5 0zm10.4 20.5c0 5.8-4.6 10.4-10.4 10.4H52c-1.3-.1-3.1-.4-4.8-2.1-1.7-2.5-4.2-1.8-5.7-1.3-.2.1-.4.1-.6.2-.2.1-.4.1-.7.1 2-.7 3.2-1.6 3.9-2.8.4-.8.5-1.7.2-2.5-.1-.7-.2-1.3-.2-2v-8.9c0-5.7 4.6-10.4 10.4-10.4h27c5.7 0 10.4 4.7 10.4 10.4v8.9z"/>
</svg>
