<?xml version="1.0" encoding="UTF-8"?>
<svg xmlns="http://www.w3.org/2000/svg" width="32" height="32" viewBox="0 0 32 32">
  <path d="M31.65 11.8c-.3-.4-.7-.7-1.3-.8l-12.3-2.5h-.4c-.4 0-.8.1-1.1.3l-1.3-3.6c-.3-.8-1.1-1.4-2-1.4-.2 0-.5 0-.7.1l-11.2 4c-.5.2-1 .6-1.2 1.1-.2.5-.3 1.1-.1 1.6l4 11.2c.3.8 1.1 1.4 2 1.4.2 0 .5 0 .7-.1l6.7-2.4-.3 1.7c-.2 1.1.5 2.1 1.6 2.3l12.3 2.5h.4c.9 0 1.8-.7 1.9-1.6l2.5-12.3c.2-.6.1-1.1-.2-1.5zm-24.2 7.8c-.5.2-1.1-.1-1.3-.6-.2-.5.1-1.1.6-1.3.5-.2 1.1.1 1.3.6.2.5 0 1.1-.6 1.3zm2.4-5.1c-.5.2-1.1-.1-1.3-.6-.2-.5.1-1.1.6-1.3.5-.2 1.1.1 1.3.6.2.5 0 1.1-.6 1.3zm2.4-5.2c-.5.2-1.1-.1-1.3-.6-.2-.5.1-1.1.6-1.3.5-.2 1.1.1 1.3.6.3.5 0 1.1-.6 1.3zm5.4 12.7c-.6-.1-.9-.7-.8-1.2.1-.6.7-.9 1.2-.8.6.1.9.7.8 1.2-.1.5-.6.9-1.2.8zm1.6-7.9c-.6-.1-.9-.7-.8-1.2.1-.6.7-.9 1.2-.8.6.1.9.7.8 1.2-.1.5-.6.9-1.2.8zm3.2 4.7c-.6-.1-.9-.7-.8-1.2.1-.6.7-.9 1.2-.8.6.1.9.7.8 1.2-.1.6-.7.9-1.2.8zm3.1 4.7c-.6-.1-.9-.7-.8-1.2.1-.6.7-.9 1.2-.8.6.1.9.7.8 1.2-.1.6-.6 1-1.2.8zm1.6-7.9c-.6-.1-.9-.7-.8-1.2.1-.6.7-.9 1.2-.8.6.1.9.7.8 1.2-.1.6-.6.9-1.2.8z"/>
</svg>
