<?xml version="1.0" encoding="UTF-8"?>
<svg width="29" height="22" viewBox="0 0 29 22" xmlns="http://www.w3.org/2000/svg">
    <path d="M28.28 7.148a1.758 1.758 0 00-1.125-.753l-11.03-2.193a1.757 1.757 0 00-1.29.248l-1.15-3.193A1.91 1.91 0 0011.247.112l-9.99 3.602a1.89 1.89 0 00-1.075.981 1.89 1.89 0 00-.07 1.455l3.602 9.99a1.91 1.91 0 002.436 1.145l6-2.163-.298 1.5c-.19.956.433 1.89 1.39 2.08l11.029 2.193a1.774 1.774 0 002.08-1.39l2.193-11.03a1.757 1.757 0 00-.265-1.327z"/>
    <path d="M20.378 11.647a.92.92 0 10-.358 1.803.92.92 0 00.358-1.803M24.613 8.817a.92.92 0 10-.359 1.803.92.92 0 00.359-1.803M17.548 7.412a.92.92 0 10-.358 1.803.92.92 0 00.358-1.803M23.208 15.881a.92.92 0 10-.358 1.804.92.92 0 00.358-1.804M16.144 14.477a.919.919 0 10-.36 1.802.919.919 0 00.36-1.802M8.197 7.835a.92.92 0 10.63 1.728.92.92 0 00-.63-1.728M10.35 3.22a.92.92 0 10.63 1.727.92.92 0 00-.63-1.728M6.044 12.45a.92.92 0 10.629 1.729.92.92 0 00-.629-1.728" fill="#FFF"/>
</svg>
