<?xml version="1.0" encoding="utf-8"?>
<svg xmlns="http://www.w3.org/2000/svg" width="32" height="32" viewBox="0 0 32 32">
  <path d="M25.9 24.7L22 18.4l7.2-1.7c-.2 3.1-1.4 5.8-3.3 8m-9.1 4.5l1.7-7.2 6.3 3.9c-2.3 1.9-5 3.1-8 3.3M12.9 16c0-2.1 1.7-3.8 3.8-3.8.9 0 1.8.3 2.4.9-1.4.2-2.4 1.4-2.4 2.9 0 1.4 1.1 2.6 2.4 2.9-.7.6-1.5.9-2.4.9-2.1 0-3.8-1.7-3.8-3.8m-5.6 9.9l6.3-3.9 1.7 7.2c-3.1-.2-5.8-1.4-8-3.3m-4.5-9.1l7.2 1.7-3.9 6.3c-1.9-2.3-3.1-5-3.3-8m3.3-9.5l3.9 6.3-7.2 1.7c.2-3.1 1.4-5.8 3.3-8m9.1-4.5L13.5 10 7.2 6.1c2.3-1.9 5-3.1 8-3.3m9.5 3.3L18.4 10l-1.7-7.2c3.1.2 5.8 1.4 8 3.3m4.5 9.1L22 13.5l3.9-6.3c1.9 2.3 3.1 5 3.3 8M16 0C7.2 0 0 7.2 0 16s7.2 16 16 16 16-7.2 16-16S24.8 0 16 0"/>
</svg>
