<?xml version="1.0" encoding="utf-8"?>
<svg width="22" height="22" viewBox="0 0 22 22" xmlns="http://www.w3.org/2000/svg" >
  <path d="M17.687 17.046l-2.614-4.183 4.806-1.109a8.708 8.708 0 01-2.192 5.292m-6.044 2.944l1.11-4.806 4.182 2.614a8.71 8.71 0 01-5.292 2.192m-2.596-8.768a2.513 2.513 0 012.51-2.51c.616 0 1.181.224 1.619.594a1.944 1.944 0 000 3.832 2.498 2.498 0 01-1.62.594 2.513 2.513 0 01-2.51-2.51m-3.759 6.576l4.183-2.614 1.11 4.806a8.709 8.709 0 01-5.293-2.192m-2.944-6.044l4.806 1.11-2.614 4.182a8.71 8.71 0 01-2.192-5.292m2.192-6.356L7.15 9.581l-4.806 1.11a8.709 8.709 0 012.192-5.293m6.044-2.944L9.47 7.26 5.287 4.646a8.71 8.71 0 015.292-2.192m6.356 2.192L12.752 7.26l-1.11-4.806a8.708 8.708 0 015.293 2.192m2.944 6.044l-4.806-1.109 2.614-4.183a8.709 8.709 0 012.192 5.292M11.111.556C5.221.556.444 5.33.444 11.222S5.22 21.89 11.111 21.89s10.667-4.776 10.667-10.667c0-5.89-4.776-10.666-10.667-10.666"/>
</svg>
