<?xml version="1.0" encoding="utf-8"?>
<svg version="1.1" xmlns="http://www.w3.org/2000/svg" width="32" height="32" viewBox="0 0 32 32">
    <path d="M30.7,11.7c-0.9-2.9-3.6-4.5-5.8-4.6c2.1,1,3.8,2.8,4.5,5c0.7,2.2,0.4,4.6-0.7,6.7 C30.4,17.5,31.6,14.6,30.7,11.7z M19,10.9c-0.5-1.4-0.9-2.5-1.1-3.1L3.6,19l0.3,0.8L19,10.9z M23,12.5L20.7,6 c-0.2-0.5-0.7-0.7-1.2-0.6c-0.5,0.2-0.7,0.7-0.6,1.2l0.1,0.3l1.1,3.3l1,2.8l0.1,0.2L3.1,21.1L3.1,21l-0.2-0.5l-0.1-0.4 c0-0.1-0.1-0.2-0.1-0.3c-0.1-0.1-0.2-0.2-0.3-0.3c-0.2-0.1-0.5-0.1-0.7,0c-0.5,0.2-0.7,0.7-0.6,1.2L2,23.4C2.1,23.8,2.5,24,2.8,24 C2.9,24,3,24,3.1,24c0.4-0.1,0.6-0.5,0.6-0.9h6c-0.1,0.2-0.1,0.5-0.1,0.7c0,1.5,1.3,2.8,2.8,2.8h1.5c1.5,0,2.8-1.3,2.8-2.8 c0-0.2,0-0.5-0.1-0.7h8.1l0.1,0.3c0.1,0.4,0.5,0.6,0.9,0.6c0.1,0,0.2,0,0.3,0c0.5-0.2,0.7-0.7,0.6-1.2L23,12.5z M13.9,25.1h-1.5 c-0.7,0-1.2-0.6-1.2-1.2c0-0.3,0.1-0.5,0.2-0.7h3.5c0.1,0.2,0.2,0.4,0.2,0.7C15.1,24.5,14.6,25.1,13.9,25.1z M24.3,10 c2.4,1.2,3.5,4.5,2.2,6.8c1.2-0.6,1.9-2.5,1.3-4.2C27.3,10.9,25.6,9.9,24.3,10z"/>
</svg>
