<?xml version="1.0" encoding="utf-8"?>
<svg version="1.1" xmlns="http://www.w3.org/2000/svg" width="34" height="32" viewBox="0 0 34 32">
    <path d="M30.85 24.753c1.592 1.591 2.388 3.497 2.388 5.713v2.025h-32.404v-2.025c0-2.217 0.795-4.122 2.387-5.713s3.496-2.388 5.714-2.388h16.202c2.217 0 4.122 0.795 5.713 2.388zM17.036 4.138c2.217 0 4.123 0.796 5.714 2.388 1.592 1.591 2.388 3.497 2.388 5.713 0 2.219-0.796 4.123-2.388 5.714-1.591 1.592-3.497 2.387-5.714 2.387s-4.123-0.795-5.714-2.387c-1.592-1.591-2.387-3.496-2.387-5.714 0-2.217 0.795-4.122 2.387-5.713s3.495-2.388 5.714-2.388z"></path>
</svg>
