<?xml version="1.0" encoding="utf-8"?>
<svg version="1.1" xmlns="http://www.w3.org/2000/svg" xmlns:xlink="http://www.w3.org/1999/xlink" width="32" height="32" viewBox="0 0 32 32">
    <path d="M29.714 17.143q-2.714-4.214-6.804-6.304 1.089 1.857 1.089 4.018 0 3.304-2.348 5.652t-5.652 2.348-5.652-2.348-2.348-5.652q0-2.161 1.089-4.018-4.089 2.089-6.804 6.304 2.375 3.661 5.955 5.83t7.759 2.17 7.759-2.17 5.955-5.83zM16.857 10.286q0-0.357-0.25-0.607t-0.607-0.25q-2.232 0-3.83 1.598t-1.598 3.83q0 0.357 0.25 0.607t0.607 0.25 0.607-0.25 0.25-0.607q0-1.536 1.089-2.625t2.625-1.089q0.357 0 0.607-0.25t0.25-0.607zM32 17.143q0 0.607-0.357 1.232-2.5 4.107-6.723 6.58t-8.92 2.473-8.92-2.482-6.723-6.571q-0.357-0.625-0.357-1.232t0.357-1.232q2.5-4.089 6.723-6.571t8.92-2.482 8.92 2.482 6.723 6.571q0.357 0.625 0.357 1.232z"></path>
</svg>
